<svg width="50" height="65" viewBox="0 0 50 65" fill="none" xmlns="http://www.w3.org/2000/svg">
<path d="M3.26531 37.6188C2.77551 37.6188 2.28572 37.5376 1.79592 37.3751C1.27891 37.2397 0.857144 36.9688 0.530614 36.5626C0.176871 36.1834 0 35.6553 0 34.9782C0 34.599 0.14966 34.1793 0.448979 33.7188C0.721088 33.2313 1.06123 32.9876 1.46939 32.9876C1.2517 33.3126 1.14286 33.7053 1.14286 34.1657C1.14286 34.6532 1.34694 35.0595 1.7551 35.3845C2.16327 35.7365 2.81633 35.9126 3.71429 35.9126C4.7483 35.9126 5.83672 35.6147 6.97957 35.0188C8.12243 34.4501 9.27891 33.6918 10.449 32.7439C11.6191 31.7689 12.7619 30.699 13.8775 29.5345C14.9932 28.3699 16.0272 27.1918 16.9796 26.0001C18.068 24.6459 19.1701 23.3188 20.2857 22.0188C21.4014 20.7188 22.4762 19.5543 23.5102 18.5251C24.5714 17.4688 25.5102 16.6563 26.3265 16.0876C26.5987 15.898 27.0476 15.5865 27.6734 15.1532C28.3265 14.7199 29.1565 14.3272 30.1632 13.9751C29.1565 14.0022 28.0952 13.9887 26.9796 13.9345C25.8912 13.8532 24.8299 13.7449 23.7959 13.6095C23.2245 13.5282 22.6395 13.4605 22.0408 13.4063C21.4422 13.3522 20.8299 13.3251 20.2041 13.3251C18.5442 13.3251 16.9796 13.5418 15.5102 13.9751C14.0408 14.4084 12.9116 15.1668 12.1224 16.2501C11.6599 16.9001 11.4286 17.5365 11.4286 18.1595C11.4286 18.5928 11.5238 18.9449 11.7143 19.2157C11.8231 19.324 11.9456 19.4459 12.0816 19.5813C12.2177 19.6897 12.3265 19.7438 12.4081 19.7438C12.2993 19.8522 12.1632 19.9063 12 19.9063C11.8095 19.9063 11.6191 19.8657 11.4286 19.7845C11.2653 19.6762 11.1293 19.5678 11.0204 19.4595C10.7483 19.1615 10.5442 18.823 10.4081 18.4438C10.2721 18.0376 10.2041 17.6449 10.2041 17.2657C10.2041 16.5074 10.3946 15.8709 10.7755 15.3563C11.5374 14.3272 12.517 13.5688 13.7143 13.0813C14.9116 12.5938 16.4218 12.3501 18.2449 12.3501C19.034 12.3501 19.8912 12.4043 20.8163 12.5126C21.7415 12.5938 22.7483 12.7157 23.8367 12.8782C24.9252 13.0407 26.0544 13.1762 27.2245 13.2845C28.4218 13.3657 29.551 13.4063 30.6122 13.4063C31.8095 13.4063 32.8299 13.3522 33.6734 13.2438C34.5442 13.1084 35.0748 12.9053 35.2653 12.6345H35.3469C35.5646 12.6345 35.6463 12.7563 35.5918 13.0001C35.5102 13.3251 35.3197 13.5418 35.0204 13.6501C34.7483 13.7313 34.449 13.8397 34.1224 13.9751C32.1632 15.7355 30.3946 17.6043 28.8163 19.5813C27.2381 21.5313 25.7415 23.5084 24.3265 25.5126C23.4286 26.7584 22.5578 28.0043 21.7143 29.2501C20.8707 30.4688 20.0544 31.6334 19.2653 32.7439C19.9728 32.3376 20.8979 31.5928 22.0408 30.5095C23.2109 29.4262 24.4626 28.1668 25.7959 26.7313C27.1293 25.2959 28.4354 23.847 29.7143 22.3845C30.8299 21.1115 32.0408 19.8251 33.3469 18.5251C34.653 17.198 36 15.9793 37.3877 14.8688C38.7755 13.7584 40.1224 12.8647 41.4286 12.1876C42.7619 11.4834 43.9728 11.1313 45.0612 11.1313C45.7959 11.1313 46.5034 11.2938 47.1837 11.6188C47.864 11.9168 48.2041 12.5262 48.2041 13.447C48.2041 13.7449 48.1089 14.0834 47.9183 14.4626C47.7279 14.8418 47.4422 15.072 47.0612 15.1532C47.1973 15.0178 47.2925 14.8282 47.3469 14.5845C47.4014 14.3137 47.4422 14.0834 47.4694 13.8938C47.4694 13.4334 47.2653 13.0543 46.8571 12.7563C46.4762 12.4313 45.8503 12.2688 44.9796 12.2688C43.8912 12.2688 42.7075 12.5938 41.4286 13.2438C40.1769 13.8668 38.8844 14.7063 37.551 15.7626C36.2449 16.7918 34.9524 17.9293 33.6734 19.1751C32.4218 20.4209 31.2653 21.6397 30.2041 22.8313C29.0612 24.1313 27.8912 25.4313 26.6939 26.7313C25.5238 28.0043 24.3946 29.1688 23.3061 30.2251C22.2177 31.2543 21.2381 32.0668 20.3673 32.6626C19.5238 33.2584 18.8571 33.5293 18.3673 33.4751C18.3401 33.4751 18.3265 33.4615 18.3265 33.4345C18.2449 33.4345 18.1769 33.3532 18.1224 33.1907C18.0952 33.1095 18.0816 32.9605 18.0816 32.7439C18.0816 32.0397 18.3401 31.1595 18.8571 30.1032C19.3742 29.0199 20.0544 27.8688 20.8979 26.6501C21.7415 25.4043 22.6258 24.1855 23.551 22.9938C24.5034 21.7751 25.4014 20.6782 26.2449 19.7032C27.1156 18.7012 27.8367 17.9157 28.4081 17.347C29.034 16.724 29.7143 16.1012 30.449 15.4782C31.2109 14.8553 31.9592 14.3272 32.6939 13.8938H32.0816C31.5102 13.9209 30.8571 14.097 30.1224 14.422C29.415 14.7199 28.7211 15.0855 28.0408 15.5188C27.3605 15.9522 26.7619 16.3855 26.2449 16.8188C25.5102 17.4418 24.653 18.2813 23.6735 19.3376C22.6939 20.3668 21.6735 21.5043 20.6122 22.7501C19.551 23.9688 18.517 25.2147 17.5102 26.4876C16.5034 27.7605 15.4422 29.047 14.3265 30.347C13.2381 31.647 12.0952 32.8522 10.8979 33.9626C9.7007 35.0459 8.46258 35.9262 7.18365 36.6032C5.93197 37.2803 4.62585 37.6188 3.26531 37.6188ZM28.1632 34.5313C27.5102 34.5313 27.0476 34.3959 26.7755 34.1251C26.5306 33.8272 26.4081 33.4615 26.4081 33.0282C26.4081 32.5678 26.5034 32.0668 26.6939 31.5251C26.9116 30.9834 27.1701 30.4418 27.4694 29.9001C28.2585 28.5459 29.1973 27.1512 30.2857 25.7157C31.3742 24.2803 32.5306 22.8584 33.7551 21.4501C35.0068 20.0418 36.2313 18.7418 37.4286 17.5501C38.0272 16.9813 38.6803 16.4262 39.3877 15.8845C40.0952 15.3428 40.7891 14.8959 41.4694 14.5438C42.1497 14.1647 42.7483 13.9751 43.2653 13.9751C42.9116 14.2459 42.3673 14.747 41.6326 15.4782C40.8979 16.1824 40.2177 16.873 39.5918 17.5501C38.7483 18.4438 37.7959 19.5137 36.7347 20.7595C35.7007 22.0053 34.6667 23.2782 33.6326 24.5782C32.6258 25.8782 31.7143 27.097 30.8979 28.2345C30.0816 29.372 29.4694 30.3063 29.0612 31.0376C28.8707 31.3626 28.7075 31.7012 28.5714 32.0532C28.4626 32.4053 28.4081 32.7303 28.4081 33.0282C28.4081 33.5428 28.6395 33.8001 29.102 33.8001C29.4014 33.8001 29.8775 33.6376 30.5306 33.3126C31.2109 32.9334 31.8503 32.4459 32.449 31.8501C33.0476 31.2272 33.6871 30.5365 34.3673 29.7782C34.449 29.7782 34.4898 29.8188 34.4898 29.9001C34.4898 30.0084 34.4354 30.1574 34.3265 30.347C34.2449 30.5365 34.1769 30.6855 34.1224 30.7938C33.0612 32.0397 32.0544 32.974 31.102 33.597C30.1497 34.2199 29.1701 34.5313 28.1632 34.5313Z" fill="#66691A"/>
<path d="M28.635 52.4468C27.8187 52.4468 27.0296 52.2843 26.2677 51.9593C25.533 51.6612 24.9208 51.1737 24.431 50.4968C23.9684 49.8198 23.7371 48.9531 23.7371 47.8968C23.7371 46.3801 24.0772 44.877 24.7575 43.3875C25.4378 41.8708 26.3358 40.4083 27.4514 39C25.7099 38.7833 24.2813 38.35 23.1657 37.7C22.05 37.05 21.4922 36.102 21.4922 34.8562C21.4922 33.9895 21.7371 33.2718 22.2269 32.7031C22.7167 32.1073 23.3289 31.6333 24.0636 31.2812C24.8256 30.9291 25.6283 30.6583 26.4718 30.4687C27.3425 30.2791 28.1452 30.1573 28.8799 30.1031C29.6419 30.0489 30.2405 30.0218 30.6759 30.0218C30.8119 30.0218 31.1248 30.0354 31.6146 30.0625C32.1317 30.0625 32.6759 30.0895 33.2473 30.1437C33.846 30.1708 34.363 30.225 34.7983 30.3062C35.2337 30.3875 35.4514 30.4823 35.4514 30.5906C35.4514 30.6989 35.3562 30.7531 35.1657 30.7531C34.8119 30.7531 34.4174 30.7395 33.982 30.7125C33.5466 30.6583 33.1113 30.6312 32.6759 30.6312C32.3493 30.6312 32.0228 30.6312 31.6963 30.6312C31.3697 30.6312 31.0568 30.6448 30.7575 30.6718C30.2133 30.6989 29.533 30.7666 28.7167 30.875C27.9004 30.9562 27.084 31.1458 26.2677 31.4437C25.4786 31.7145 24.8119 32.1343 24.2677 32.7031C23.7235 33.2448 23.4514 33.9895 23.4514 34.9375C23.4514 35.9395 23.8595 36.725 24.6759 37.2937C25.5194 37.8354 26.6079 38.1874 27.9412 38.3499C29.2201 36.8333 30.6759 35.4385 32.3085 34.1656C33.9412 32.8656 35.6011 31.7416 37.2881 30.7937C39.0024 29.8458 40.6487 29.101 42.2269 28.5593C43.8323 28.0176 45.2337 27.7468 46.431 27.7468C47.2201 27.7468 47.9548 27.8958 48.635 28.1937C49.3154 28.4645 49.6555 29.0468 49.6555 29.9406C49.6555 30.9968 49.2337 31.9854 48.3901 32.9062C47.5738 33.827 46.4718 34.6666 45.084 35.425C43.6963 36.1833 42.1452 36.8468 40.431 37.4156C38.7167 37.9573 36.948 38.377 35.1248 38.675C33.3017 38.9729 31.5602 39.1218 29.9004 39.1218H29.5738C28.567 40.476 27.7507 41.8708 27.1248 43.3062C26.5262 44.7145 26.2269 46.1229 26.2269 47.5312C26.2269 48.8583 26.5262 49.8739 27.1248 50.5781C27.7235 51.255 28.431 51.5937 29.2473 51.5937C30.4446 51.5937 31.6827 51.3093 32.9616 50.7406C34.2405 50.1448 35.4242 49.3729 36.5126 48.425C37.6283 47.477 38.567 46.4614 39.3289 45.3781C40.0909 44.2676 40.5534 43.1979 40.7167 42.1687C40.7167 42.1145 40.7167 42.0604 40.7167 42.0062C40.7439 41.952 40.7575 41.8979 40.7575 41.8437C40.7575 41.4916 40.6487 41.2073 40.431 40.9906C40.2133 40.7468 39.8595 40.625 39.3697 40.625C39.2609 40.625 39.1521 40.6385 39.0432 40.6656C38.9344 40.6656 38.8119 40.6791 38.6759 40.7062C37.914 40.8416 37.0432 41.2343 36.0636 41.8843C35.084 42.5343 34.1589 43.3468 33.2881 44.3218C32.4446 45.2698 31.8051 46.2854 31.3697 47.3687C31.2609 47.4229 31.1929 47.45 31.1657 47.45C31.0296 47.45 31.0024 47.2875 31.084 46.9625C31.3562 46.2312 31.7915 45.4593 32.3901 44.6468C33.016 43.8073 33.7507 43.0218 34.5942 42.2906C35.4378 41.5593 36.3493 40.9635 37.3289 40.5031C38.3085 40.0426 39.3017 39.8125 40.3085 39.8125C41.0705 39.8395 41.6283 40.0156 41.982 40.3406C42.3358 40.6656 42.5126 41.0989 42.5126 41.6406C42.5126 42.426 42.1861 43.3333 41.533 44.3625C41.016 45.175 40.2813 46.0551 39.3289 47.0031C38.4038 47.9239 37.3425 48.8041 36.1452 49.6437C34.948 50.4562 33.6963 51.1199 32.3901 51.6343C31.1113 52.1762 29.8595 52.4468 28.635 52.4468ZM30.0636 38.4718C31.5602 38.4718 33.1521 38.3229 34.8391 38.025C36.5534 37.7 38.2269 37.2666 39.8595 36.725C41.4922 36.1833 42.9752 35.5468 44.3085 34.8156C45.6419 34.0843 46.7031 33.2989 47.4922 32.4593C48.3085 31.6198 48.7167 30.7395 48.7167 29.8187C48.7167 29.1958 48.4718 28.7895 47.982 28.6C47.5194 28.4104 47.016 28.3156 46.4718 28.3156C45.3562 28.3156 44.0909 28.5864 42.6759 29.1281C41.2609 29.6426 39.7915 30.3604 38.2677 31.2812C36.7711 32.202 35.3154 33.2854 33.9004 34.5312C32.4854 35.75 31.2065 37.0635 30.0636 38.4718Z" fill="#66691A"/>
</svg>
