<svg width="596" height="261" viewBox="0 0 596 261" fill="none" xmlns="http://www.w3.org/2000/svg">
<path d="M204.228 41.479C205.269 41.479 206.069 41.2149 206.627 40.6869C207.201 40.1589 207.487 39.5177 207.487 38.7634C207.487 38.009 207.208 37.3678 206.65 36.8398C206.107 36.2967 205.435 35.829 204.636 35.4367C203.851 35.0445 203.059 34.6371 202.259 34.2147C201.475 33.7923 200.803 33.2341 200.245 32.5401C199.702 31.831 199.43 31.0088 199.43 30.0734C199.43 28.7307 199.913 27.7199 200.879 27.041C201.844 26.347 202.991 26 204.319 26C206.024 26 207.487 26.2866 208.71 26.8599C208.815 27.0862 208.868 27.6822 208.868 28.6477C208.868 29.5982 208.838 30.3148 208.777 30.7976L208.076 30.7523C208.015 29.6962 207.646 28.8212 206.967 28.1272C206.303 27.4181 205.398 27.0636 204.251 27.0636C203.436 27.0636 202.765 27.2748 202.237 27.6973C201.724 28.1046 201.467 28.6779 201.467 29.4171C201.467 30.2922 202.003 31.054 203.074 31.7028C203.542 31.9894 204.062 32.2761 204.636 32.5627C205.209 32.8494 205.782 33.1586 206.356 33.4905C206.929 33.8074 207.45 34.1619 207.917 34.5542C208.989 35.4292 209.524 36.5456 209.524 37.9034C209.524 39.2461 209.057 40.3701 208.121 41.2753C207.186 42.1654 205.948 42.6105 204.409 42.6105C202.87 42.6105 201.271 42.3012 199.611 41.6826C199.536 41.4563 199.43 40.8981 199.294 40.008C199.158 39.1028 199.06 38.3409 199 37.7224L200.041 37.564C200.645 40.174 202.04 41.479 204.228 41.479ZM215.474 42.2484L213.12 42.3389L212.894 41.2979H213.029C213.723 41.2225 214.252 41.0339 214.614 40.7322C214.991 40.4153 215.308 39.9024 215.564 39.1933L220.362 26.2716H221.449L226.79 39.5554C227.107 40.2947 227.386 40.7774 227.628 41.0037C227.884 41.23 228.292 41.3432 228.85 41.3432L229.099 42.3389C227.922 42.2635 226.858 42.2258 225.908 42.2258C224.972 42.2258 224.059 42.2635 223.169 42.3389L222.965 41.3658H223.056C224.248 41.3507 224.844 41.1395 224.844 40.7322C224.844 40.536 224.301 39.1933 223.214 36.704H217.579L216.47 39.7817C216.424 39.9627 216.402 40.1212 216.402 40.2569C216.402 40.5738 216.545 40.8151 216.832 40.9811C217.118 41.1471 217.609 41.2527 218.303 41.2979L218.574 42.3389L215.474 42.2484ZM220.181 29.5529L218.009 35.5273H222.694L220.181 29.5529ZM244.909 26.3621L247.262 26.2716L247.489 27.2447H247.353C246.674 27.3201 246.146 27.5238 245.769 27.8557C245.391 28.1725 245.075 28.693 244.818 29.4171L240.02 42.3389H238.934L234.045 29.0551C233.698 28.3158 233.404 27.833 233.162 27.6067C232.921 27.3804 232.528 27.2673 231.985 27.2673L231.736 26.2716C232.913 26.347 233.969 26.3847 234.905 26.3847C235.855 26.3847 236.776 26.347 237.666 26.2716L237.87 27.2447H237.779C236.587 27.2597 235.991 27.471 235.991 27.8783C235.991 28.0292 236.044 28.2177 236.15 28.444L240.201 39.0575L243.913 28.8288C243.958 28.6477 243.981 28.4893 243.981 28.3535C243.981 27.6897 243.347 27.3201 242.079 27.2447L241.808 26.2716L244.909 26.3621ZM258.89 27.2673L256.332 27.2899C255.276 27.3352 254.748 27.4559 254.748 27.652V33.3095C254.748 33.4604 254.823 33.5358 254.974 33.5358H258.573C258.935 33.5358 259.176 33.3699 259.297 33.0379C259.433 32.691 259.501 32.0573 259.501 31.137L260.248 31.0239L260.202 34.0337L260.248 36.8172L259.501 36.9303C259.501 36.0402 259.448 35.4669 259.342 35.2104C259.237 34.954 258.98 34.8257 258.573 34.8257H254.974C254.823 34.8257 254.748 34.8936 254.748 35.0294V39.7817C254.748 40.4455 254.884 40.8679 255.155 41.049C255.427 41.2149 256.023 41.2979 256.943 41.2979H259.139C260.285 41.2979 261.183 41.0339 261.832 40.5059C262.481 39.9627 262.994 39.133 263.371 38.0166L264.141 38.1523C264.141 38.4239 263.944 39.1933 263.552 40.4606C263.16 41.7128 262.881 42.3389 262.715 42.3389L256.943 42.3842C256.551 42.3842 255.404 42.3691 253.503 42.3389L250.991 42.4068L250.81 41.4111C251.655 41.3205 252.168 41.2376 252.349 41.1621C252.545 41.0716 252.658 40.8604 252.688 40.5285V28.082C252.688 27.7651 252.583 27.5539 252.371 27.4483C252.16 27.3427 251.67 27.2597 250.9 27.1994L250.697 26.2037L253.526 26.2716H257.17L262.76 26.2942C262.866 26.5205 262.918 27.0259 262.918 27.8104C262.918 28.5949 262.881 29.4021 262.805 30.2318L262.081 30.1639C261.9 29.0928 261.568 28.346 261.085 27.9236C260.602 27.486 259.87 27.2673 258.89 27.2673ZM284.208 27.2899H282.398V40.4832C282.398 40.8001 282.518 41.0113 282.76 41.1169C283.016 41.2225 283.59 41.3055 284.48 41.3658L284.684 42.3615C282.737 42.3163 281.696 42.2936 281.56 42.2936C281.425 42.2936 280.361 42.3163 278.369 42.3615L278.188 41.3658C279.199 41.2753 279.81 41.1923 280.021 41.1169C280.233 41.0264 280.338 40.8151 280.338 40.4832V27.2899H278.935C278.18 27.2899 277.622 27.3276 277.26 27.4031C276.219 27.6143 275.555 28.5421 275.268 30.1866L274.635 30.2318C274.529 29.7038 274.476 28.9796 274.476 28.0593C274.476 27.124 274.529 26.4752 274.635 26.1131C274.967 26.2188 275.563 26.2716 276.423 26.2716H286.585C287.46 26.2716 288.048 26.2188 288.35 26.1131C288.411 26.7619 288.441 27.4559 288.441 28.1951C288.441 28.9344 288.38 29.6133 288.26 30.2318L287.581 30.1639C287.445 29.1079 287.128 28.3686 286.63 27.9462C286.132 27.5087 285.325 27.2899 284.208 27.2899ZM294.906 26.2716L297.622 26.2037L297.803 27.1994C296.958 27.2899 296.445 27.3804 296.264 27.471C296.083 27.5464 295.993 27.7501 295.993 28.082V33.5584H304.593V28.082C304.593 27.7953 304.487 27.5916 304.276 27.471C304.08 27.3503 303.68 27.2597 303.077 27.1994L302.873 26.2037L305.589 26.2716L308.373 26.2037L308.554 27.1994C307.694 27.2899 307.158 27.3804 306.947 27.471C306.751 27.5464 306.653 27.7501 306.653 28.082V40.5285C306.653 40.8302 306.751 41.0414 306.947 41.1621C307.158 41.2677 307.573 41.3507 308.192 41.4111L308.395 42.4068L305.725 42.3389L302.896 42.4068L302.715 41.4111C303.71 41.2904 304.269 41.1848 304.389 41.0942C304.525 40.9886 304.593 40.8227 304.593 40.5964V34.8031H295.993V40.5285C295.993 40.8302 296.091 41.0414 296.287 41.1621C296.483 41.2677 296.89 41.3507 297.509 41.4111L297.713 42.4068L295.065 42.3389L292.281 42.4068L292.1 41.4111C292.945 41.3205 293.458 41.2376 293.639 41.1621C293.835 41.0716 293.933 40.8604 293.933 40.5285V28.082C293.933 27.7953 293.835 27.5916 293.639 27.471C293.458 27.3503 293.065 27.2597 292.462 27.1994L292.258 26.2037L294.906 26.2716ZM320.37 27.2673L317.812 27.2899C316.756 27.3352 316.228 27.4559 316.228 27.652V33.3095C316.228 33.4604 316.303 33.5358 316.454 33.5358H320.053C320.415 33.5358 320.656 33.3699 320.777 33.0379C320.913 32.691 320.981 32.0573 320.981 31.137L321.728 31.0239L321.682 34.0337L321.728 36.8172L320.981 36.9303C320.981 36.0402 320.928 35.4669 320.822 35.2104C320.717 34.954 320.46 34.8257 320.053 34.8257H316.454C316.303 34.8257 316.228 34.8936 316.228 35.0294V39.7817C316.228 40.4455 316.364 40.8679 316.635 41.049C316.907 41.2149 317.503 41.2979 318.423 41.2979H320.619C321.765 41.2979 322.663 41.0339 323.312 40.5059C323.961 39.9627 324.474 39.133 324.851 38.0166L325.621 38.1523C325.621 38.4239 325.424 39.1933 325.032 40.4606C324.64 41.7128 324.361 42.3389 324.195 42.3389L318.423 42.3842C318.031 42.3842 316.884 42.3691 314.983 42.3389L312.471 42.4068L312.29 41.4111C313.135 41.3205 313.648 41.2376 313.829 41.1621C314.025 41.0716 314.138 40.8604 314.168 40.5285V28.082C314.168 27.7651 314.063 27.5539 313.851 27.4483C313.64 27.3427 313.15 27.2597 312.38 27.1994L312.177 26.2037L315.006 26.2716H318.65L324.24 26.2942C324.346 26.5205 324.398 27.0259 324.398 27.8104C324.398 28.5949 324.361 29.4021 324.285 30.2318L323.561 30.1639C323.38 29.0928 323.048 28.346 322.565 27.9236C322.082 27.486 321.351 27.2673 320.37 27.2673ZM338.65 42.3389L336.137 42.4068L335.956 41.4111C336.801 41.3205 337.314 41.2376 337.495 41.1621C337.691 41.0716 337.79 40.8604 337.79 40.5285V28.1046C337.79 27.8029 337.676 27.5992 337.45 27.4936C337.239 27.3729 336.771 27.2824 336.047 27.222L335.843 26.2263L338.627 26.2942L343.312 26.2489C346.194 26.2489 348.442 26.9354 350.057 28.3083C351.671 29.6812 352.478 31.6047 352.478 34.0789C352.478 36.5531 351.648 38.5597 349.989 40.0985C348.329 41.6374 345.975 42.4068 342.927 42.4068C342.927 42.4068 341.501 42.3842 338.65 42.3389ZM343.561 41.2527C345.673 41.2527 347.288 40.6643 348.404 39.4875C349.536 38.2957 350.102 36.5909 350.102 34.3731C350.102 32.1403 349.461 30.4053 348.178 29.1682C346.911 27.9311 345.1 27.3125 342.746 27.3125H341.003C340.234 27.3125 339.849 27.4634 339.849 27.7651V39.4196C339.849 39.7214 339.857 39.9401 339.872 40.0759C339.902 40.2117 339.97 40.3776 340.075 40.5738C340.196 40.7548 340.385 40.883 340.641 40.9585C341.305 41.1546 342.278 41.2527 343.561 41.2527ZM358.334 42.2484L355.98 42.3389L355.754 41.2979H355.89C356.584 41.2225 357.112 41.0339 357.474 40.7322C357.851 40.4153 358.168 39.9024 358.425 39.1933L363.223 26.2716H364.309L369.651 39.5554C369.968 40.2947 370.247 40.7774 370.488 41.0037C370.745 41.23 371.152 41.3432 371.71 41.3432L371.959 42.3389C370.782 42.2635 369.719 42.2258 368.768 42.2258C367.832 42.2258 366.92 42.2635 366.029 42.3389L365.826 41.3658H365.916C367.108 41.3507 367.704 41.1395 367.704 40.7322C367.704 40.536 367.161 39.1933 366.075 36.704H360.439L359.33 39.7817C359.285 39.9627 359.262 40.1212 359.262 40.2569C359.262 40.5738 359.405 40.8151 359.692 40.9811C359.979 41.1471 360.469 41.2527 361.163 41.2979L361.435 42.3389L358.334 42.2484ZM363.042 29.5529L360.869 35.5273H365.554L363.042 29.5529ZM384.806 27.2899H382.995V40.4832C382.995 40.8001 383.116 41.0113 383.357 41.1169C383.614 41.2225 384.187 41.3055 385.077 41.3658L385.281 42.3615C383.334 42.3163 382.293 42.2936 382.158 42.2936C382.022 42.2936 380.958 42.3163 378.966 42.3615L378.785 41.3658C379.796 41.2753 380.407 41.1923 380.619 41.1169C380.83 41.0264 380.935 40.8151 380.935 40.4832V27.2899H379.532C378.778 27.2899 378.219 27.3276 377.857 27.4031C376.816 27.6143 376.152 28.5421 375.866 30.1866L375.232 30.2318C375.126 29.7038 375.073 28.9796 375.073 28.0593C375.073 27.124 375.126 26.4752 375.232 26.1131C375.564 26.2188 376.16 26.2716 377.02 26.2716H387.182C388.057 26.2716 388.646 26.2188 388.947 26.1131C389.008 26.7619 389.038 27.4559 389.038 28.1951C389.038 28.9344 388.978 29.6133 388.857 30.2318L388.178 30.1639C388.042 29.1079 387.725 28.3686 387.227 27.9462C386.729 27.5087 385.922 27.2899 384.806 27.2899ZM400.89 27.2673L398.333 27.2899C397.276 27.3352 396.748 27.4559 396.748 27.652V33.3095C396.748 33.4604 396.824 33.5358 396.975 33.5358H400.573C400.935 33.5358 401.177 33.3699 401.298 33.0379C401.433 32.691 401.501 32.0573 401.501 31.137L402.248 31.0239L402.203 34.0337L402.248 36.8172L401.501 36.9303C401.501 36.0402 401.448 35.4669 401.343 35.2104C401.237 34.954 400.981 34.8257 400.573 34.8257H396.975C396.824 34.8257 396.748 34.8936 396.748 35.0294V39.7817C396.748 40.4455 396.884 40.8679 397.156 41.049C397.427 41.2149 398.023 41.2979 398.944 41.2979H401.139C402.286 41.2979 403.184 41.0339 403.832 40.5059C404.481 39.9627 404.994 39.133 405.371 38.0166L406.141 38.1523C406.141 38.4239 405.945 39.1933 405.552 40.4606C405.16 41.7128 404.881 42.3389 404.715 42.3389L398.944 42.3842C398.551 42.3842 397.405 42.3691 395.503 42.3389L392.991 42.4068L392.81 41.4111C393.655 41.3205 394.168 41.2376 394.349 41.1621C394.545 41.0716 394.659 40.8604 394.689 40.5285V28.082C394.689 27.7651 394.583 27.5539 394.372 27.4483C394.161 27.3427 393.67 27.2597 392.901 27.1994L392.697 26.2037L395.526 26.2716H399.17L404.76 26.2942C404.866 26.5205 404.919 27.0259 404.919 27.8104C404.919 28.5949 404.881 29.4021 404.806 30.2318L404.081 30.1639C403.9 29.0928 403.568 28.346 403.086 27.9236C402.603 27.486 401.871 27.2673 400.89 27.2673Z" fill="#66691A"/>
<path d="M9.65671 140.427C8.20821 140.427 6.7597 140.186 5.31119 139.703C3.78221 139.301 2.53489 138.496 1.56922 137.289C0.523072 136.163 0 134.594 0 132.582C0 131.456 0.442599 130.208 1.3278 128.841C2.13252 127.392 3.13843 126.668 4.34552 126.668C3.70174 127.634 3.37985 128.8 3.37985 130.168C3.37985 131.616 3.9834 132.823 5.19048 133.789C6.39757 134.835 8.32892 135.358 10.9845 135.358C14.0425 135.358 17.2613 134.473 20.6412 132.703C24.021 131.013 27.4411 128.76 30.9014 125.944C34.3618 123.047 37.7417 119.869 41.041 116.409C44.3404 112.949 47.3984 109.449 50.2148 105.909C53.4338 101.886 56.693 97.943 59.9922 94.0808C63.2917 90.2186 66.4704 86.7587 69.5282 83.7011C72.6667 80.5631 75.443 78.1492 77.8572 76.4595C78.662 75.8963 79.9898 74.9709 81.8406 73.6835C83.7719 72.3962 86.2264 71.2294 89.2038 70.1834C86.2264 70.2638 83.0879 70.2237 79.7885 70.0627C76.5697 69.8213 73.4312 69.4995 70.3732 69.0972C68.6833 68.8558 66.9532 68.6547 65.1827 68.4937C63.4124 68.3327 61.6017 68.2523 59.7508 68.2523C54.8421 68.2523 50.2148 68.8961 45.8693 70.1834C41.5238 71.4708 38.1842 73.7238 35.8505 76.9423C34.4825 78.8734 33.7984 80.7642 33.7984 82.6149C33.7984 83.9022 34.0801 84.9483 34.6434 85.7529C34.9654 86.0747 35.3275 86.4368 35.7298 86.8391C36.1322 87.1609 36.454 87.3219 36.6954 87.3219C36.3736 87.6437 35.9712 87.8047 35.4883 87.8047C34.9251 87.8047 34.3618 87.684 33.7984 87.4426C33.3156 87.1208 32.9133 86.7989 32.5913 86.4771C31.7867 85.5919 31.1831 84.5862 30.7807 83.4597C30.3784 82.2528 30.1772 81.0861 30.1772 79.9596C30.1772 77.7067 30.7406 75.8157 31.8671 74.287C34.1204 71.2294 37.0174 68.9765 40.5581 67.5282C44.099 66.0798 48.5652 65.3557 53.9568 65.3557C56.2906 65.3557 58.8254 65.5166 61.5615 65.8384C64.2976 66.0798 67.2751 66.4419 70.4939 66.9247C73.7129 67.4075 77.0525 67.8098 80.5128 68.1316C84.0536 68.373 87.3932 68.4937 90.5316 68.4937C94.0724 68.4937 97.0902 68.3327 99.5848 68.0109C102.16 67.6086 103.729 67.0051 104.292 66.2005H104.534C105.178 66.2005 105.419 66.5626 105.258 67.2868C105.017 68.2523 104.453 68.8961 103.568 69.2179C102.763 69.4593 101.878 69.7811 100.913 70.1834C95.1185 75.4135 89.8879 80.9654 85.2204 86.8391C80.553 92.6324 76.1271 98.5061 71.9424 104.46C69.2868 108.162 66.7118 111.863 64.2171 115.564C61.7225 119.185 59.3083 122.645 56.9745 125.944C59.0669 124.737 61.8029 122.524 65.1827 119.306C68.6432 116.087 72.3448 112.346 76.2879 108.081C80.2312 103.817 84.0939 99.512 87.876 95.167C91.1754 91.3852 94.7564 87.5633 98.6191 83.7011C102.482 79.7585 106.465 76.1377 110.569 72.8387C114.673 69.5397 118.657 66.8844 122.519 64.8729C126.463 62.7808 130.044 61.7349 133.263 61.7349C135.435 61.7349 137.528 62.2176 139.539 63.1832C141.551 64.0683 142.557 65.8787 142.557 68.6144C142.557 69.4995 142.276 70.5052 141.712 71.6317C141.149 72.7583 140.304 73.4421 139.177 73.6835C139.58 73.2812 139.861 72.718 140.022 71.9938C140.183 71.1893 140.304 70.5052 140.384 69.942C140.384 68.5741 139.781 67.4477 138.574 66.5626C137.447 65.5971 135.596 65.1143 133.021 65.1143C129.802 65.1143 126.302 66.0798 122.519 68.0109C118.818 69.8616 114.995 72.3559 111.052 75.4939C107.189 78.5516 103.367 81.931 99.5848 85.6322C95.8831 89.3334 92.4629 92.9542 89.3245 96.4946C85.9447 100.357 82.4844 104.219 78.9435 108.081C75.4833 111.863 72.1437 115.323 68.9247 118.461C65.7059 121.518 62.8088 123.932 60.2337 125.702C57.7391 127.473 55.7674 128.277 54.3189 128.116C54.2385 128.116 54.1982 128.076 54.1982 127.996C53.9568 127.996 53.7557 127.754 53.5947 127.272C53.5143 127.03 53.474 126.588 53.474 125.944C53.474 123.852 54.2385 121.237 55.7674 118.099C57.2965 114.88 59.3083 111.461 61.8029 107.84C64.2976 104.139 66.9129 100.518 69.649 96.9774C72.4655 93.3566 75.1211 90.0979 77.6157 87.2012C80.1909 84.2242 82.3234 81.8907 84.0133 80.201C85.8642 78.3503 87.876 76.4998 90.0488 74.6491C92.3021 72.7984 94.515 71.2294 96.6877 69.942H94.8771C93.1872 70.0224 91.2558 70.5455 89.0831 71.5111C86.9909 72.3962 84.9388 73.4824 82.9269 74.7698C80.9152 76.0571 79.1448 77.3446 77.6157 78.632C75.443 80.4827 72.9081 82.977 70.0111 86.115C67.1141 89.1726 64.0964 92.552 60.9579 96.2532C57.8195 99.8741 54.7616 103.575 51.784 107.357C48.8066 111.139 45.6682 114.961 42.3688 118.823C39.1499 122.685 35.7701 126.266 32.2292 129.565C28.6885 132.783 25.027 135.398 21.2447 137.41C17.543 139.421 13.6803 140.427 9.65671 140.427ZM83.2891 131.254C81.3577 131.254 79.9898 130.852 79.185 130.047C78.4607 129.162 78.0986 128.076 78.0986 126.789C78.0986 125.421 78.3803 123.932 78.9435 122.323C79.5874 120.714 80.3519 119.105 81.237 117.495C83.5708 113.472 86.3471 109.328 89.5659 105.064C92.7849 100.799 96.2049 96.5751 99.8262 92.3911C103.528 88.2071 107.149 84.3449 110.69 80.8045C112.46 79.1148 114.392 77.4653 116.484 75.856C118.576 74.2467 120.628 72.9191 122.64 71.8731C124.652 70.7466 126.422 70.1834 127.951 70.1834C126.905 70.988 125.296 72.4766 123.123 74.6491C120.95 76.7412 118.938 78.793 117.088 80.8045C114.593 83.4597 111.776 86.638 108.638 90.3393C105.58 94.0405 102.522 97.8223 99.464 101.684C96.4866 105.547 93.7907 109.167 91.3766 112.547C88.9624 115.926 87.1517 118.702 85.9447 120.875C85.3814 121.84 84.8986 122.846 84.4961 123.892C84.1743 124.938 84.0133 125.904 84.0133 126.789C84.0133 128.317 84.6974 129.082 86.0654 129.082C86.9506 129.082 88.3588 128.599 90.2902 127.634C92.3021 126.507 94.1931 125.059 95.9635 123.289C97.734 121.438 99.625 119.386 101.637 117.133C101.878 117.133 101.999 117.254 101.999 117.495C101.999 117.817 101.838 118.26 101.516 118.823C101.275 119.386 101.074 119.829 100.913 120.151C97.7741 123.852 94.7967 126.628 91.9801 128.478C89.1637 130.329 86.2666 131.254 83.2891 131.254ZM103.065 131.375C100.087 131.375 98.5984 129.685 98.5984 126.306C98.5984 124.375 99.1617 122.082 100.288 119.426C101.415 116.691 103.105 113.834 105.358 110.857C106.968 108.846 108.939 106.713 111.273 104.46C113.607 102.127 116.141 99.9143 118.878 97.8223C121.694 95.7302 124.551 94.0405 127.448 92.7531C130.345 91.3852 133.161 90.7013 135.897 90.7013C137.105 90.7013 137.95 90.9024 138.432 91.3048C138.915 91.6266 139.237 91.9887 139.398 92.3911C139.559 92.7129 139.559 92.9542 139.398 93.1152C139.318 93.2762 139.197 93.3163 139.036 93.2359C138.714 93.0749 138.07 92.9945 137.105 92.9945C134.208 92.9945 130.747 94.4026 126.724 97.2188C122.78 99.9545 118.878 103.535 115.015 107.961C112.279 111.018 110.025 114.035 108.255 117.013C106.485 119.909 105.318 122.323 104.755 124.254C104.594 124.898 104.513 125.461 104.513 125.944C104.513 127.07 104.956 127.634 105.841 127.634C106.404 127.634 107.169 127.392 108.134 126.909C109.1 126.346 110.347 125.421 111.876 124.133C114.291 122.041 116.664 119.587 118.998 116.771C121.412 113.955 123.786 111.099 126.12 108.202C128.454 105.225 130.707 102.489 132.88 99.9947C135.133 97.5005 137.266 95.6095 139.277 94.3222C141.852 92.6324 143.623 91.6669 144.588 91.4255C145.635 91.1841 146.48 91.0231 147.123 90.9427C146.721 91.4255 145.836 92.552 144.468 94.3222C143.1 96.0923 141.651 97.9832 140.122 99.9947C138.593 101.926 137.346 103.535 136.38 104.823C134.932 106.915 133.363 109.167 131.673 111.581C130.063 113.995 128.574 116.288 127.206 118.461C125.919 120.553 125.034 122.283 124.551 123.651C124.148 125.019 123.947 126.024 123.947 126.668C123.947 127.955 124.47 128.599 125.516 128.599C126.241 128.599 127.086 128.317 128.051 127.754C129.097 127.111 130.144 126.386 131.19 125.582C132.558 124.455 133.845 123.289 135.052 122.082C136.26 120.794 137.507 119.386 138.794 117.857C139.116 117.857 139.277 118.099 139.277 118.582C139.277 119.306 139.116 119.869 138.794 120.271C137.748 121.478 136.461 122.806 134.932 124.254C133.483 125.702 132.035 126.99 130.586 128.116C129.54 129.002 128.333 129.766 126.965 130.41C125.597 131.053 124.269 131.375 122.982 131.375C121.131 131.375 119.843 130.933 119.119 130.047C118.395 129.162 118.033 128.036 118.033 126.668C118.033 125.059 118.395 123.329 119.119 121.478C119.843 119.547 120.648 117.737 121.533 116.047C120.487 117.334 119.159 118.903 117.55 120.754C115.94 122.524 114.492 124.013 113.204 125.22C111.434 126.829 109.744 128.277 108.134 129.565C106.525 130.772 104.835 131.375 103.065 131.375ZM152.863 131.496C150.851 131.496 149.402 130.973 148.517 129.927C147.712 128.881 147.31 127.593 147.31 126.065C147.31 125.099 147.431 124.133 147.672 123.168C148.155 120.754 149.362 118.219 151.294 115.564C153.225 112.909 155.518 110.254 158.174 107.598C160.83 104.943 163.526 102.529 166.261 100.357C169.079 98.1843 171.573 96.3739 173.745 94.9256C172.78 95.0866 171.532 95.167 170.003 95.167C168.234 95.167 166.382 95.0866 164.451 94.9256C162.519 94.6842 161.192 94.3222 160.467 93.8394C160.146 94.4026 159.34 95.4888 158.053 97.0981C156.846 98.6268 155.318 100.478 153.466 102.65C151.696 104.822 149.845 107.035 147.914 109.288C145.982 111.541 144.172 113.673 142.482 115.685C140.792 117.616 139.424 119.145 138.378 120.271C137.331 121.478 135.923 122.927 134.153 124.616C132.302 126.226 130.491 127.674 128.721 128.961C126.87 130.249 125.341 130.892 124.134 130.892C123.571 130.892 123.249 130.772 123.168 130.53C123.007 130.289 122.927 130.128 122.927 130.047C124.214 130.047 126.146 129.162 128.721 127.392C131.216 125.542 134.434 122.363 138.378 117.857C143.125 112.386 147.592 106.512 151.776 100.236C156.042 93.8797 159.864 87.2816 163.244 80.4424H163.364C164.41 80.4424 164.934 81.4482 164.934 83.4597C164.934 85.3104 164.289 87.4829 163.002 89.9772C162.681 90.5404 162.198 91.3048 161.554 92.2704C163.164 92.5922 164.772 92.8335 166.382 92.9945C167.992 93.0749 169.48 93.1152 170.848 93.1152C171.976 93.1152 173.021 93.0749 173.987 92.9945C174.953 92.9141 175.718 92.7934 176.28 92.6324C177.005 92.6324 177.367 92.7934 177.367 93.1152C177.447 93.3566 177.407 93.5577 177.246 93.7187C176.925 94.0405 176.24 94.7646 175.194 95.8912C174.228 97.0177 173.101 98.2648 171.814 99.6327C170.607 100.92 169.48 102.167 168.434 103.374C167.389 104.501 166.624 105.346 166.141 105.909C163.647 108.886 161.151 112.145 158.657 115.685C156.243 119.225 154.553 122.403 153.587 125.22C153.266 125.944 153.104 126.628 153.104 127.272C153.104 128.398 153.628 128.961 154.673 128.961C155.801 128.961 157.208 128.317 158.898 127.03C160.588 125.662 162.278 124.093 163.968 122.323C165.738 120.553 167.147 119.064 168.193 117.857C168.514 117.857 168.676 118.099 168.676 118.582C168.676 119.306 168.514 119.869 168.193 120.271C164.492 124.616 161.474 127.593 159.14 129.203C156.887 130.731 154.794 131.496 152.863 131.496ZM177.617 132.099C176.087 132.099 174.518 131.858 172.91 131.375C171.3 130.973 169.972 130.128 168.926 128.841C167.879 127.553 167.357 125.662 167.357 123.168C167.357 120.432 168.081 117.576 169.53 114.599C170.978 111.622 172.91 108.725 175.324 105.909C177.818 103.093 180.514 100.558 183.411 98.305C186.308 96.0521 189.205 94.2819 192.102 92.9945C195.079 91.6266 197.815 90.9427 200.31 90.9427C201.839 90.9427 202.885 91.3451 203.449 92.1497C204.092 92.8738 204.415 93.759 204.415 94.8049C204.415 95.8509 204.173 96.8567 203.69 97.8223C202.966 99.512 201.677 101.242 199.828 103.012C198.056 104.702 196.004 105.547 193.671 105.547C192.786 105.547 192.262 105.225 192.102 104.581C192.021 103.937 192.061 103.455 192.223 103.133C193.349 102.811 194.879 102.127 196.81 101.081C198.741 99.9545 200.27 98.2648 201.397 96.0119C201.638 95.5291 201.759 95.0866 201.759 94.6842C201.759 93.4773 201.035 92.8738 199.586 92.8738C197.735 92.8738 195.321 94.0405 192.344 96.3739C189.447 98.6268 186.227 101.886 182.687 106.15C180.191 109.047 178.1 111.984 176.41 114.961C174.8 117.857 173.996 120.834 173.996 123.892C173.996 125.743 174.358 127.231 175.082 128.358C175.807 129.404 177.134 129.927 179.066 129.927C181.56 129.927 183.813 129.323 185.825 128.116C187.917 126.909 189.848 125.381 191.619 123.53C193.389 121.599 195.079 119.708 196.689 117.857C197.011 117.857 197.172 118.099 197.172 118.582C197.172 119.306 197.011 119.869 196.689 120.271C195.079 122.122 193.349 123.973 191.499 125.823C189.647 127.674 187.595 129.203 185.343 130.41C183.088 131.536 180.514 132.099 177.617 132.099ZM205.902 132.099C202.2 132.099 199.585 131.295 198.056 129.685C196.526 128.076 195.763 125.904 195.763 123.168C195.763 120.513 196.487 117.737 197.935 114.84C199.464 111.863 201.355 109.047 203.609 106.392C204.976 104.782 206.666 103.093 208.679 101.322C210.69 99.5523 212.863 97.9027 215.197 96.3739C217.53 94.7646 219.823 93.4773 222.077 92.5117C224.41 91.4658 226.462 90.9427 228.233 90.9427C229.199 90.9427 230.083 91.1841 230.889 91.6669C231.693 92.0693 232.096 92.9945 232.096 94.4428C232.096 96.4544 231.13 98.3855 229.199 100.236C227.268 102.006 225.095 103.656 222.681 105.185C219.944 106.955 217.087 108.443 214.11 109.65C211.132 110.857 208.558 111.782 206.385 112.426C205.178 114.357 204.212 116.329 203.488 118.34C202.764 120.352 202.402 122.323 202.402 124.254C202.402 126.346 202.885 127.795 203.85 128.599C204.896 129.323 206.103 129.685 207.471 129.685C209.966 129.685 212.218 129.122 214.231 127.996C216.322 126.789 218.254 125.26 220.025 123.409C221.795 121.559 223.485 119.708 225.095 117.857C225.416 117.857 225.578 118.099 225.578 118.582C225.578 119.306 225.416 119.869 225.095 120.271C223.485 122.122 221.715 123.973 219.784 125.823C217.932 127.674 215.88 129.203 213.628 130.41C211.373 131.536 208.799 132.099 205.902 132.099ZM207.834 110.736C209.925 110.012 212.38 109.006 215.197 107.719C218.094 106.432 220.629 105.024 222.802 103.495C223.284 103.173 224.129 102.529 225.336 101.564C226.543 100.518 227.669 99.3913 228.716 98.1843C229.762 96.897 230.285 95.7705 230.285 94.8049C230.285 93.5176 229.641 92.8738 228.354 92.8738C226.986 92.8738 225.416 93.4773 223.646 94.6842C221.957 95.8912 220.588 96.9371 219.542 97.8223C217.611 99.5924 215.598 101.564 213.507 103.736C211.414 105.909 209.524 108.242 207.834 110.736ZM228.517 131.616C224.493 131.616 222.482 129.766 222.482 126.065C222.482 124.858 222.764 123.45 223.327 121.84C223.889 120.231 224.937 118.099 226.465 115.444C228.558 111.823 231.494 107.558 235.277 102.65C239.139 97.7419 243.244 92.9542 247.589 88.2875C251.372 84.0229 255.476 80.1206 259.901 76.5802C264.408 72.9594 269.075 70.4651 273.904 69.0972C274.628 68.8558 275.473 68.6547 276.438 68.4937C277.404 68.3327 278.411 68.2523 279.456 68.2523C281.388 68.2523 283.037 68.534 284.405 69.0972C285.05 69.419 285.692 69.8616 286.337 70.4248C286.981 70.9076 287.423 71.6317 287.664 72.5973C286.779 71.8731 285.774 71.3501 284.647 71.0283C283.52 70.6259 282.153 70.4248 280.543 70.4248C276.359 70.4248 272.334 71.7927 268.472 74.5284C264.609 77.2641 260.746 80.8045 256.884 85.1494C253.101 89.414 249.118 93.9601 244.933 98.7878C243.324 100.639 241.554 102.932 239.622 105.667C237.691 108.403 235.84 111.139 234.07 113.875C232.38 116.61 231.011 118.944 229.966 120.875C229.403 121.76 228.959 122.725 228.638 123.771C228.396 124.737 228.276 125.542 228.276 126.185C228.276 128.116 229 129.082 230.448 129.082C231.977 129.082 233.667 128.358 235.518 126.909C237.45 125.461 239.26 123.852 240.95 122.082C242.72 120.312 244.048 118.903 244.933 117.857C245.255 117.857 245.416 118.099 245.416 118.582C245.416 119.306 245.255 119.869 244.933 120.271C241.715 123.973 238.737 126.789 236.001 128.72C233.345 130.651 230.851 131.616 228.517 131.616ZM247.114 131.375C244.137 131.375 242.648 129.685 242.648 126.306C242.648 124.375 243.21 122.082 244.337 119.426C245.465 116.691 247.155 113.834 249.407 110.857C251.017 108.846 252.988 106.713 255.322 104.46C257.656 102.127 260.191 99.9143 262.927 97.8223C265.744 95.7302 268.6 94.0405 271.497 92.7531C274.394 91.3852 277.211 90.7013 279.947 90.7013C281.154 90.7013 281.999 90.9024 282.481 91.3048C282.964 91.6266 283.286 91.9887 283.447 92.3911C283.609 92.7129 283.609 92.9542 283.447 93.1152C283.367 93.2762 283.246 93.3163 283.085 93.2359C282.764 93.0749 282.119 92.9945 281.154 92.9945C278.257 92.9945 274.797 94.4026 270.773 97.2188C266.83 99.9545 262.927 103.535 259.064 107.961C256.328 111.018 254.074 114.035 252.304 117.013C250.534 119.909 249.367 122.323 248.804 124.254C248.642 124.898 248.562 125.461 248.562 125.944C248.562 127.07 249.004 127.634 249.89 127.634C250.453 127.634 251.218 127.392 252.184 126.909C253.149 126.346 254.397 125.421 255.926 124.133C258.34 122.041 260.713 119.587 263.047 116.771C265.462 113.955 267.835 111.099 270.169 108.202C272.503 105.225 274.756 102.489 276.929 99.9947C279.182 97.5005 281.315 95.6095 283.326 94.3222C285.902 92.6324 287.672 91.6669 288.638 91.4255C289.683 91.1841 290.528 91.0231 291.173 90.9427C290.77 91.4255 289.885 92.552 288.517 94.3222C287.148 96.0923 285.7 97.9832 284.171 99.9947C282.643 101.926 281.395 103.535 280.429 104.823C278.981 106.915 277.412 109.167 275.722 111.581C274.112 113.995 272.624 116.288 271.256 118.461C269.969 120.553 269.083 122.283 268.6 123.651C268.197 125.019 267.996 126.024 267.996 126.668C267.996 127.955 268.52 128.599 269.566 128.599C270.29 128.599 271.135 128.317 272.101 127.754C273.146 127.111 274.193 126.386 275.239 125.582C276.607 124.455 277.895 123.289 279.102 122.082C280.309 120.794 281.557 119.386 282.844 117.857C283.165 117.857 283.326 118.099 283.326 118.582C283.326 119.306 283.165 119.869 282.844 120.271C281.798 121.478 280.509 122.806 278.981 124.254C277.532 125.702 276.084 126.99 274.635 128.116C273.59 129.002 272.383 129.766 271.014 130.41C269.646 131.053 268.318 131.375 267.031 131.375C265.179 131.375 263.892 130.933 263.168 130.047C262.444 129.162 262.082 128.036 262.082 126.668C262.082 125.059 262.444 123.329 263.168 121.478C263.892 119.547 264.697 117.737 265.582 116.047C264.537 117.334 263.209 118.903 261.599 120.754C259.989 122.524 258.54 124.013 257.253 125.22C255.483 126.829 253.794 128.277 252.184 129.565C250.574 130.772 248.884 131.375 247.114 131.375Z" fill="#66691A"/>
<path d="M314.086 140.186C311.069 140.186 308.745 139.522 307.116 138.194C305.546 136.806 304.762 134.905 304.762 132.491C304.762 132.19 304.792 131.828 304.852 131.405C304.913 130.983 304.973 130.621 305.033 130.319C305.395 128.267 306.271 126.306 307.659 124.435C309.107 122.504 310.827 120.784 312.819 119.276C314.871 117.767 317.014 116.53 319.247 115.564C321.54 114.599 323.743 114.056 325.856 113.935C325.795 113.633 325.735 113.271 325.675 112.849C325.675 112.366 325.675 111.823 325.675 111.219C325.675 109.409 326.218 107.568 327.304 105.697C328.39 103.766 329.839 102.016 331.65 100.447C333.521 98.818 335.603 97.5205 337.896 96.555C340.19 95.5291 342.544 95.0161 344.958 95.0161C345.199 95.0161 345.471 95.0161 345.773 95.0161C346.135 95.0161 346.436 95.0463 346.678 95.1066C348.247 95.2877 349.635 95.7704 350.842 96.555C352.049 97.2791 352.653 98.305 352.653 99.6326C352.653 99.9344 352.593 100.327 352.472 100.809C351.868 102.741 350.661 104.491 348.851 106.06C347.1 107.629 345.018 108.775 342.604 109.499C342.363 109.56 342.151 109.62 341.97 109.68C341.789 109.68 341.638 109.68 341.518 109.68C341.276 109.68 341.155 109.62 341.155 109.499C341.155 109.137 341.548 108.805 342.332 108.504C344.264 107.598 345.923 106.452 347.312 105.064C348.7 103.616 349.605 102.047 350.028 100.357C350.148 99.5119 349.937 98.7274 349.394 98.0033C348.911 97.2791 347.734 96.917 345.863 96.917C344.294 96.917 342.513 97.43 340.522 98.4559C338.53 99.4214 336.478 100.87 334.366 102.801C333.098 103.947 331.951 105.366 330.925 107.055C329.899 108.745 328.994 110.525 328.209 112.396C328.209 112.456 328.179 112.547 328.119 112.668C328.059 112.788 328.028 112.909 328.028 113.03C327.908 113.271 327.847 113.543 327.847 113.844C329.598 113.784 331.046 114.116 332.193 114.84C332.857 115.202 333.128 115.444 333.008 115.564C332.827 116.107 332.132 116.379 330.925 116.379C329.356 116.379 328.149 116.168 327.304 115.745C326.519 115.323 326.067 114.81 325.946 114.206C323.472 114.629 321.027 115.745 318.613 117.556C316.259 119.366 314.268 121.508 312.638 123.983C311.008 126.457 309.982 128.961 309.56 131.496C309.379 132.401 309.288 133.246 309.288 134.03C309.288 135.479 309.681 136.655 310.465 137.561C311.31 138.466 312.819 138.918 314.992 138.918C316.863 138.918 318.764 138.496 320.695 137.651C322.687 136.746 324.588 135.599 326.399 134.211C328.209 132.763 329.809 131.164 331.197 129.414C332.585 127.664 333.611 125.944 334.275 124.254H334.003L331.106 123.53L325.675 122.534C325.675 122.534 325.373 122.685 324.769 122.987C324.166 123.228 323.441 123.5 322.596 123.802C321.812 124.103 321.027 124.254 320.243 124.254C319.156 124.254 318.613 124.013 318.613 123.53C318.613 123.047 318.975 122.595 319.699 122.172C320.484 121.689 321.42 121.448 322.506 121.448C322.928 121.448 323.321 121.448 323.683 121.448C324.105 121.448 324.528 121.508 324.95 121.629L326.761 120.271C327.968 119.547 329.235 118.944 330.563 118.461C331.891 117.978 333.249 117.737 334.637 117.737C336.086 117.797 337.142 118.129 337.806 118.732C338.53 119.336 338.892 120.09 338.892 120.995C338.892 121.961 338.681 122.866 338.258 123.711H337.987C338.289 123.771 338.621 123.802 338.983 123.802C339.345 123.802 339.707 123.802 340.069 123.802C342 123.802 343.992 123.5 346.044 122.896C348.157 122.293 349.937 121.388 351.386 120.181C352.834 118.913 353.558 117.344 353.558 115.474C353.558 114.991 353.438 114.448 353.196 113.844C353.015 113.241 352.653 112.849 352.11 112.668C352.472 112.547 352.834 112.487 353.196 112.487C354.222 112.487 355.097 112.849 355.822 113.573C356.606 114.297 356.998 115.172 356.998 116.198C356.998 118.37 356.244 120.12 354.735 121.448C353.287 122.776 351.536 123.741 349.484 124.345C347.493 124.888 345.652 125.159 343.962 125.159C342.996 125.159 342 125.159 340.974 125.159C339.948 125.099 338.832 124.978 337.625 124.797L336.991 125.793C336.086 127.241 334.788 128.81 333.098 130.5C331.469 132.129 329.598 133.698 327.485 135.207C325.373 136.655 323.17 137.862 320.876 138.828C318.583 139.733 316.32 140.186 314.086 140.186ZM334.366 123.258C334.486 123.258 334.547 123.258 334.547 123.258L334.909 121.991C334.969 121.81 334.999 121.569 334.999 121.267C334.999 120.724 334.848 120.271 334.547 119.909C334.245 119.487 333.702 119.276 332.917 119.276C332.736 119.276 332.555 119.276 332.374 119.276C332.193 119.276 332.012 119.306 331.831 119.366C331.408 119.426 330.925 119.577 330.382 119.819C329.839 120 329.266 120.241 328.662 120.543L327.666 121.176C327.546 121.237 327.364 121.327 327.123 121.448C326.942 121.569 326.791 121.689 326.67 121.81H326.489L328.572 122.263C329.115 122.323 329.658 122.414 330.201 122.534C330.744 122.655 331.287 122.745 331.831 122.806L334.366 123.258Z" fill="#66691A"/>
<path d="M397.015 136.203C394.6 136.203 392.266 135.72 390.014 134.754C387.841 133.869 386.03 132.421 384.582 130.409C383.213 128.398 382.53 125.823 382.53 122.685C382.53 118.179 383.536 113.713 385.547 109.288C387.559 104.782 390.214 100.437 393.514 96.2532C388.364 95.6094 384.14 94.3221 380.84 92.391C377.54 90.4599 375.891 87.6437 375.891 83.9424C375.891 81.3676 376.615 79.2354 378.063 77.5457C379.512 75.7755 381.323 74.3674 383.495 73.3214C385.748 72.2754 388.123 71.4707 390.617 70.9075C393.193 70.3443 395.566 69.9823 397.739 69.8213C399.992 69.6603 401.763 69.5799 403.05 69.5799C403.453 69.5799 404.378 69.6202 405.826 69.7006C407.355 69.7006 408.965 69.781 410.655 69.942C412.425 70.0224 413.955 70.1834 415.242 70.4247C416.529 70.6661 417.173 70.9478 417.173 71.2696C417.173 71.5914 416.891 71.7524 416.328 71.7524C415.282 71.7524 414.115 71.7121 412.828 71.6317C411.54 71.4707 410.252 71.3903 408.965 71.3903C407.999 71.3903 407.034 71.3903 406.068 71.3903C405.102 71.3903 404.177 71.4306 403.292 71.511C401.682 71.5914 399.67 71.7927 397.256 72.1145C394.842 72.3558 392.428 72.919 390.014 73.8042C387.679 74.6087 385.709 75.856 384.099 77.5457C382.489 79.155 381.685 81.3676 381.685 84.1838C381.685 87.1609 382.892 89.4943 385.306 91.1841C387.8 92.7933 391.02 93.8393 394.963 94.3221C398.745 89.8161 403.05 85.6724 407.878 81.8906C412.707 78.0284 417.615 74.6893 422.605 71.8731C427.675 69.0568 432.544 66.8442 437.211 65.2349C441.959 63.6256 446.102 62.821 449.644 62.821C451.978 62.821 454.151 63.2635 456.162 64.1487C458.173 64.9533 459.18 66.6832 459.18 69.3385C459.18 72.4765 457.932 75.4135 455.438 78.1491C453.024 80.8848 449.764 83.3792 445.66 85.6321C441.556 87.885 436.969 89.8564 431.9 91.5461C426.83 93.1554 421.599 94.4025 416.207 95.2876C410.816 96.1728 405.665 96.6153 400.757 96.6153H399.791C396.814 100.638 394.4 104.782 392.548 109.047C390.779 113.231 389.893 117.415 389.893 121.599C389.893 125.541 390.779 128.559 392.548 130.651C394.318 132.662 396.411 133.668 398.825 133.668C402.367 133.668 406.027 132.823 409.81 131.134C413.593 129.364 417.093 127.07 420.311 124.254C423.611 121.438 426.388 118.421 428.64 115.202C430.893 111.903 432.262 108.725 432.744 105.667C432.744 105.506 432.744 105.345 432.744 105.185C432.824 105.024 432.865 104.863 432.865 104.702C432.865 103.656 432.544 102.811 431.9 102.167C431.255 101.443 430.21 101.081 428.761 101.081C428.44 101.081 428.117 101.121 427.795 101.202C427.474 101.202 427.112 101.242 426.709 101.322C424.456 101.725 421.881 102.891 418.984 104.822C416.087 106.754 413.351 109.167 410.775 112.064C408.281 114.88 406.389 117.898 405.102 121.116C404.781 121.277 404.579 121.357 404.499 121.357C404.096 121.357 404.016 120.875 404.257 119.909C405.061 117.737 406.35 115.443 408.12 113.03C409.971 110.535 412.144 108.202 414.638 106.029C417.132 103.857 419.829 102.087 422.726 100.719C425.623 99.3509 428.56 98.6671 431.537 98.6671C433.79 98.7475 435.441 99.2705 436.486 100.236C437.532 101.202 438.056 102.489 438.056 104.098C438.056 106.432 437.09 109.127 435.159 112.185C433.63 114.599 431.457 117.214 428.64 120.03C425.905 122.766 422.766 125.381 419.225 127.875C415.684 130.289 411.983 132.26 408.12 133.789C404.337 135.398 400.636 136.203 397.015 136.203ZM401.239 94.6842C405.665 94.6842 410.373 94.2417 415.362 93.3565C420.432 92.391 425.381 91.1036 430.21 89.4943C435.038 87.885 439.424 85.9942 443.367 83.8217C447.31 81.6493 450.448 79.3158 452.782 76.8215C455.196 74.3272 456.403 71.7121 456.403 68.9764C456.403 67.1257 455.679 65.9188 454.231 65.3556C452.862 64.7924 451.374 64.5108 449.764 64.5108C446.465 64.5108 442.723 65.3153 438.539 66.9246C434.354 68.4534 430.009 70.5857 425.502 73.3214C421.076 76.0571 416.77 79.2757 412.586 82.9769C408.402 86.5977 404.619 90.5002 401.239 94.6842ZM439.284 131.375C436.307 131.375 434.818 129.685 434.818 126.306C434.818 124.375 435.382 122.082 436.508 119.426C437.635 116.691 439.325 113.834 441.577 110.857C443.187 108.846 445.159 106.713 447.492 104.46C449.826 102.127 452.361 99.9143 455.097 97.8222C457.914 95.7301 460.77 94.0404 463.667 92.7531C466.564 91.3852 469.381 90.7013 472.117 90.7013C473.324 90.7013 474.169 90.9024 474.652 91.3047C475.134 91.6265 475.457 91.9886 475.617 92.391C475.779 92.7128 475.779 92.9542 475.617 93.1152C475.537 93.2761 475.417 93.3163 475.255 93.2358C474.934 93.0749 474.289 92.9945 473.324 92.9945C470.427 92.9945 466.967 94.4025 462.943 97.2187C459 99.9544 455.097 103.535 451.234 107.96C448.499 111.018 446.246 114.035 444.474 117.012C442.705 119.909 441.538 122.323 440.974 124.254C440.814 124.898 440.732 125.461 440.732 125.944C440.732 127.07 441.176 127.634 442.06 127.634C442.625 127.634 443.388 127.392 444.354 126.909C445.319 126.346 446.567 125.421 448.096 124.133C450.51 122.041 452.885 119.587 455.217 116.771C457.632 113.955 460.007 111.099 462.339 108.202C464.674 105.225 466.926 102.489 469.099 99.9947C471.353 97.5004 473.485 95.6094 475.497 94.3221C478.072 92.6324 479.842 91.6668 480.808 91.4254C481.855 91.1841 482.7 91.0231 483.343 90.9427C482.941 91.4254 482.056 92.552 480.687 94.3221C479.32 96.0922 477.872 97.9832 476.342 99.9947C474.813 101.926 473.565 103.535 472.6 104.822C471.151 106.915 469.582 109.167 467.892 111.581C466.283 113.995 464.794 116.288 463.426 118.461C462.139 120.553 461.253 122.283 460.77 123.651C460.369 125.019 460.167 126.024 460.167 126.668C460.167 127.955 460.69 128.599 461.736 128.599C462.46 128.599 463.305 128.317 464.271 127.754C465.318 127.11 466.363 126.386 467.409 125.582C468.778 124.455 470.065 123.289 471.272 122.082C472.479 120.794 473.727 119.386 475.014 117.857C475.337 117.857 475.497 118.099 475.497 118.582C475.497 119.306 475.337 119.869 475.014 120.271C473.968 121.478 472.681 122.806 471.151 124.254C469.703 125.702 468.254 126.99 466.806 128.116C465.76 129.001 464.553 129.766 463.184 130.409C461.817 131.053 460.489 131.375 459.201 131.375C457.351 131.375 456.062 130.933 455.338 130.047C454.614 129.162 454.252 128.036 454.252 126.668C454.252 125.059 454.614 123.329 455.338 121.478C456.062 119.547 456.868 117.737 457.752 116.047C456.707 117.334 455.379 118.903 453.769 120.754C452.16 122.524 450.712 124.013 449.423 125.22C447.654 126.829 445.964 128.277 444.354 129.565C442.745 130.772 441.055 131.375 439.284 131.375ZM489.082 131.496C487.071 131.496 485.623 130.973 484.737 129.927C483.933 128.881 483.53 127.593 483.53 126.065C483.53 125.099 483.65 124.133 483.892 123.168C484.375 120.754 485.582 118.219 487.513 115.564C489.444 112.909 491.738 110.254 494.394 107.598C497.049 104.943 499.745 102.529 502.481 100.357C505.298 98.1843 507.792 96.3739 509.965 94.9256C508.999 95.0865 507.751 95.1669 506.223 95.1669C504.453 95.1669 502.602 95.0865 500.67 94.9256C498.739 94.6842 497.411 94.3221 496.687 93.8393C496.366 94.4025 495.56 95.4887 494.273 97.098C493.066 98.6268 491.537 100.477 489.686 102.65C487.916 104.822 486.065 107.035 484.133 109.288C482.202 111.541 480.391 113.673 478.701 115.685C477.011 117.616 475.643 119.145 474.597 120.271C473.552 121.478 472.142 122.926 470.372 124.616C468.521 126.225 466.71 127.674 464.941 128.961C463.089 130.249 461.561 130.892 460.354 130.892C459.791 130.892 459.468 130.772 459.388 130.53C459.227 130.289 459.147 130.128 459.147 130.047C460.434 130.047 462.365 129.162 464.941 127.392C467.435 125.541 470.655 122.363 474.597 117.857C479.346 112.386 483.812 106.512 487.996 100.236C492.262 93.8796 496.083 87.2816 499.463 80.4423H499.584C500.63 80.4423 501.153 81.4481 501.153 83.4597C501.153 85.3103 500.509 87.4828 499.222 89.9771C498.901 90.5403 498.418 91.3047 497.773 92.2703C499.383 92.5921 500.992 92.8335 502.602 92.9945C504.212 93.0749 505.699 93.1152 507.068 93.1152C508.195 93.1152 509.241 93.0749 510.206 92.9945C511.172 92.914 511.937 92.7934 512.5 92.6324C513.224 92.6324 513.586 92.7934 513.586 93.1152C513.666 93.3565 513.627 93.5576 513.466 93.7186C513.144 94.0404 512.459 94.7646 511.413 95.8911C510.448 97.0176 509.321 98.2647 508.034 99.6326C506.827 100.92 505.699 102.167 504.654 103.374C503.608 104.501 502.843 105.345 502.36 105.909C499.866 108.886 497.371 112.144 494.876 115.685C492.462 119.225 490.772 122.403 489.807 125.22C489.485 125.944 489.324 126.628 489.324 127.271C489.324 128.398 489.847 128.961 490.893 128.961C492.02 128.961 493.428 128.317 495.118 127.03C496.808 125.662 498.498 124.093 500.188 122.323C501.957 120.553 503.367 119.064 504.412 117.857C504.734 117.857 504.895 118.099 504.895 118.582C504.895 119.306 504.734 119.869 504.412 120.271C500.711 124.616 497.693 127.593 495.359 129.203C493.106 130.731 491.014 131.496 489.082 131.496ZM507.801 131.616C503.777 131.616 501.766 129.766 501.766 126.065C501.766 124.858 502.046 123.45 502.611 121.84C503.174 120.231 504.219 118.099 505.749 115.443C507.84 111.823 510.778 107.558 514.561 102.65C518.424 97.7418 522.528 92.9542 526.873 88.2874C530.654 84.0228 534.759 80.1205 539.186 76.5801C543.691 72.9593 548.359 70.465 553.188 69.0971C553.912 68.8557 554.757 68.6546 555.723 68.4936C556.688 68.3327 557.693 68.2523 558.74 68.2523C560.672 68.2523 562.321 68.5339 563.689 69.0971C564.332 69.4189 564.977 69.8616 565.621 70.4247C566.264 70.9075 566.707 71.6317 566.949 72.5972C566.063 71.8731 565.056 71.35 563.931 71.0282C562.804 70.6259 561.435 70.4247 559.827 70.4247C555.641 70.4247 551.619 71.7927 547.756 74.5283C543.893 77.264 540.031 80.8044 536.168 85.1494C532.385 89.4139 528.402 93.96 524.218 98.7878C522.608 100.638 520.838 102.932 518.906 105.667C516.975 108.403 515.124 111.139 513.354 113.874C511.664 116.61 510.295 118.944 509.25 120.875C508.685 121.76 508.243 122.725 507.922 123.771C507.681 124.737 507.56 125.541 507.56 126.185C507.56 128.116 508.284 129.082 509.733 129.082C511.261 129.082 512.951 128.358 514.802 126.909C516.734 125.461 518.544 123.852 520.234 122.082C522.004 120.311 523.332 118.903 524.218 117.857C524.539 117.857 524.701 118.099 524.701 118.582C524.701 119.306 524.539 119.869 524.218 120.271C520.998 123.972 518.021 126.789 515.285 128.72C512.63 130.651 510.134 131.616 507.801 131.616ZM528.933 131.858C526.599 131.858 524.949 131.295 523.984 130.168C522.937 128.961 522.415 127.473 522.415 125.702C522.415 123.45 523.057 120.794 524.346 117.737C525.713 114.679 527.524 111.581 529.778 108.443C532.031 105.305 534.565 102.409 537.382 99.7533C540.198 97.0176 543.056 94.8451 545.953 93.2358C548.93 91.5461 551.786 90.7013 554.523 90.7013C556.534 90.7013 557.983 91.2243 558.869 92.2703C559.753 93.3163 560.196 94.6842 560.196 96.3739C560.196 98.6268 559.552 101.322 558.265 104.46C556.977 107.518 555.207 110.656 552.954 113.874C550.781 117.012 548.326 119.949 545.591 122.685C542.935 125.421 540.159 127.634 537.262 129.323C534.365 131.013 531.588 131.858 528.933 131.858ZM530.381 129.565C532.071 129.565 534.083 128.72 536.417 127.03C538.831 125.26 541.284 123.007 543.78 120.271C546.274 117.536 548.568 114.639 550.66 111.581C552.833 108.443 554.562 105.506 555.851 102.771C557.218 99.9544 557.903 97.6612 557.903 95.8911C557.903 93.96 556.977 92.9945 555.127 92.9945C553.597 92.9945 551.665 93.9197 549.333 95.7704C547.078 97.5405 544.705 99.8337 542.211 102.65C539.797 105.466 537.503 108.443 535.33 111.581C533.158 114.719 531.386 117.696 530.019 120.513C528.731 123.329 528.088 125.541 528.088 127.151C528.088 128.76 528.851 129.565 530.381 129.565ZM565.364 132.099C563.754 132.099 562.185 131.938 560.657 131.616C559.208 131.295 557.92 130.731 556.794 129.927C555.908 129.283 555.184 128.398 554.621 127.271C553.977 126.145 553.656 124.697 553.656 122.926C553.656 120.834 554.178 119.225 555.225 118.099C556.19 116.972 557.236 116.409 558.363 116.409C559.247 115.283 560.454 113.713 561.984 111.702C563.513 109.61 565.203 107.317 567.054 104.822C568.986 102.328 570.956 99.8337 572.969 97.3394C574.98 94.7646 576.871 92.4714 578.642 90.4599C579.768 89.3334 580.936 88.1264 582.143 86.8391C583.43 85.5517 584.838 84.4655 586.368 83.5804C587.976 82.6148 589.666 82.132 591.437 82.132C592.804 82.132 593.77 82.4538 594.334 83.0976C594.977 83.7413 595.3 84.5056 595.3 85.3908C595.3 85.8735 595.179 86.316 594.938 86.7184C594.052 86.5574 592.804 86.7184 591.196 87.2012C589.586 87.6035 587.816 88.3678 585.885 89.4943C583.792 90.7817 581.66 92.391 579.487 94.3221C579.406 95.2876 579.285 96.7762 579.125 98.7878C579.044 100.719 578.923 102.932 578.763 105.426C578.602 107.84 578.319 110.294 577.918 112.788C577.595 115.202 577.153 117.334 576.59 119.185C576.187 120.472 575.543 121.921 574.659 123.53C573.773 125.059 572.566 126.507 571.038 127.875C569.589 129.162 567.779 130.047 565.606 130.53C568.503 130.53 570.917 130.088 572.848 129.203C574.78 128.317 576.388 127.312 577.677 126.185C579.044 124.978 580.13 124.013 580.936 123.289C581.579 122.645 582.464 121.72 583.591 120.513C584.717 119.306 585.523 118.421 586.006 117.857C586.327 117.857 586.488 118.099 586.488 118.582C586.488 119.306 586.327 119.869 586.006 120.271C582.626 123.892 579.809 126.547 577.556 128.237C575.543 129.766 573.491 130.772 571.4 131.254C569.307 131.818 567.296 132.099 565.364 132.099ZM561.139 129.806C562.507 129.806 563.754 129.283 564.881 128.237C566.089 127.11 567.175 125.823 568.141 124.375C569.106 122.846 569.87 121.438 570.434 120.151C571.318 118.219 572.245 115.765 573.21 112.788C574.176 109.811 575.101 106.794 575.987 103.736C576.871 100.598 577.595 97.9026 578.159 95.6497C575.905 97.8222 573.652 100.196 571.4 102.771C569.227 105.345 567.214 107.799 565.364 110.133C563.513 112.466 561.984 114.398 560.777 115.926C559.73 117.294 558.926 118.742 558.363 120.271C557.799 121.8 557.518 123.248 557.518 124.616C557.518 126.145 557.84 127.392 558.484 128.358C559.127 129.323 560.012 129.806 561.139 129.806Z" fill="#66691A"/>
<path d="M167.358 179.207C168.792 179.207 169.75 179.147 170.233 179.026C170.308 179.147 170.346 179.29 170.346 179.456L163.556 194.89C163.42 194.875 163.307 194.852 163.216 194.822C163.126 194.792 163.005 194.769 162.854 194.754C162.703 194.739 162.598 194.717 162.537 194.686C162.492 194.671 162.477 194.641 162.492 194.596L167.901 181.357C167.932 181.297 167.924 181.244 167.879 181.199C167.849 181.138 167.803 181.108 167.743 181.108H162.288C161.64 181.108 161.149 181.237 160.817 181.493C160.5 181.734 160.221 182.187 159.98 182.851L159.414 182.534C159.414 181.568 159.572 180.663 159.889 179.818C160.04 179.456 160.146 179.185 160.206 179.004C160.583 179.109 161.76 179.177 163.737 179.207H167.358ZM182.928 194.618L180.416 194.686L180.235 193.691C181.08 193.6 181.593 193.517 181.774 193.442C181.97 193.351 182.068 193.14 182.068 192.808V180.384C182.068 180.082 181.955 179.879 181.729 179.773C181.517 179.652 181.05 179.562 180.325 179.502L180.122 178.506L182.906 178.574L187.591 178.528C190.472 178.528 192.721 179.215 194.335 180.588C195.95 181.961 196.757 183.884 196.757 186.358C196.757 188.833 195.927 190.839 194.267 192.378C192.607 193.917 190.254 194.686 187.206 194.686C187.206 194.686 185.78 194.664 182.928 194.618ZM187.839 193.532C189.952 193.532 191.566 192.944 192.683 191.767C193.815 190.575 194.38 188.87 194.38 186.653C194.38 184.42 193.739 182.685 192.457 181.448C191.189 180.211 189.379 179.592 187.025 179.592H185.282C184.512 179.592 184.128 179.743 184.128 180.045V191.699C184.128 192.001 184.135 192.22 184.15 192.355C184.18 192.491 184.248 192.657 184.354 192.853C184.475 193.034 184.663 193.163 184.92 193.238C185.584 193.434 186.557 193.532 187.839 193.532ZM208.792 179.547L206.234 179.569C205.178 179.615 204.65 179.735 204.65 179.932V185.589C204.65 185.74 204.725 185.815 204.876 185.815H208.475C208.837 185.815 209.078 185.649 209.199 185.317C209.335 184.97 209.403 184.337 209.403 183.417L210.15 183.303L210.104 186.313L210.15 189.097L209.403 189.21C209.403 188.32 209.35 187.746 209.244 187.49C209.139 187.234 208.882 187.105 208.475 187.105H204.876C204.725 187.105 204.65 187.173 204.65 187.309V192.061C204.65 192.725 204.786 193.147 205.057 193.329C205.329 193.494 205.925 193.577 206.845 193.577H209.04C210.187 193.577 211.085 193.313 211.734 192.785C212.383 192.242 212.896 191.413 213.273 190.296L214.042 190.432C214.042 190.703 213.846 191.473 213.454 192.74C213.062 193.992 212.782 194.618 212.616 194.618L206.845 194.664C206.453 194.664 205.306 194.649 203.405 194.618L200.893 194.686L200.712 193.691C201.557 193.6 202.07 193.517 202.251 193.442C202.447 193.351 202.56 193.14 202.59 192.808V180.362C202.59 180.045 202.484 179.833 202.273 179.728C202.062 179.622 201.572 179.539 200.802 179.479L200.598 178.483L203.428 178.551H207.071L212.662 178.574C212.767 178.8 212.82 179.305 212.82 180.09C212.82 180.874 212.782 181.682 212.707 182.511L211.983 182.443C211.802 181.372 211.47 180.626 210.987 180.203C210.504 179.766 209.772 179.547 208.792 179.547ZM238.205 178.528L240.763 178.461L240.944 179.456C240.084 179.547 239.556 179.637 239.36 179.728C239.163 179.818 239.065 180.022 239.065 180.339L239.088 194.686C238.982 194.671 238.786 194.664 238.499 194.664C238.213 194.664 238.017 194.671 237.911 194.686L227.613 181.402V192.831C227.613 193.147 227.726 193.359 227.953 193.464C228.179 193.57 228.707 193.653 229.537 193.713L229.741 194.709L227.115 194.641L224.558 194.709L224.377 193.713C225.237 193.623 225.765 193.532 225.961 193.442C226.157 193.351 226.255 193.147 226.255 192.831V180.339C226.255 180.037 226.142 179.833 225.916 179.728C225.704 179.607 225.237 179.517 224.512 179.456L224.309 178.461C224.309 178.461 225.237 178.483 227.093 178.528C227.5 178.528 227.922 178.506 228.36 178.461C228.36 178.702 229.922 180.776 233.045 184.684C235.535 187.731 237.089 189.745 237.707 190.726V180.339C237.707 180.022 237.587 179.811 237.345 179.705C237.119 179.6 236.591 179.517 235.761 179.456L235.557 178.461C235.557 178.461 236.44 178.483 238.205 178.528ZM252.983 194.89C250.599 194.89 248.638 194.151 247.099 192.672C245.559 191.194 244.79 189.263 244.79 186.879C244.79 184.495 245.605 182.466 247.234 180.791C248.879 179.117 250.893 178.28 253.277 178.28C255.661 178.28 257.608 179.034 259.117 180.543C260.625 182.036 261.38 183.982 261.38 186.381C261.38 188.78 260.58 190.802 258.981 192.446C257.381 194.075 255.382 194.89 252.983 194.89ZM253.617 193.758C255.292 193.758 256.604 193.147 257.555 191.925C258.521 190.688 259.003 189.134 259.003 187.264C259.003 184.141 258.068 181.87 256.197 180.452C255.231 179.713 254.054 179.343 252.666 179.343C250.991 179.343 249.656 179.977 248.66 181.244C247.664 182.511 247.166 184.073 247.166 185.929C247.166 188.01 247.672 189.806 248.683 191.314C249.181 192.069 249.852 192.665 250.697 193.102C251.557 193.54 252.53 193.758 253.617 193.758ZM277.517 178.642L279.871 178.551L280.097 179.524H279.961C279.283 179.6 278.754 179.803 278.377 180.135C278 180.452 277.683 180.973 277.427 181.697L272.628 194.618H271.542L266.653 181.335C266.306 180.595 266.012 180.113 265.771 179.886C265.529 179.66 265.137 179.547 264.594 179.547L264.345 178.551C265.522 178.627 266.578 178.664 267.513 178.664C268.464 178.664 269.384 178.627 270.275 178.551L270.478 179.524H270.388C269.196 179.539 268.6 179.75 268.6 180.158C268.6 180.309 268.653 180.497 268.758 180.724L272.809 191.337L276.521 181.108C276.567 180.927 276.589 180.769 276.589 180.633C276.589 179.969 275.955 179.6 274.688 179.524L274.416 178.551L277.517 178.642ZM283.667 178.483L286.519 178.551C286.534 178.551 287.537 178.528 289.529 178.483L289.71 179.479C288.76 179.569 288.179 179.66 287.968 179.75C287.756 179.826 287.651 180.03 287.651 180.362V192.808C287.651 193.125 287.756 193.336 287.968 193.442C288.179 193.547 288.646 193.63 289.371 193.691L289.574 194.686L286.723 194.618C286.708 194.618 285.704 194.641 283.713 194.686L283.531 193.691C284.482 193.6 285.063 193.517 285.274 193.442C285.485 193.351 285.591 193.14 285.591 192.808V180.362C285.591 180.045 285.485 179.833 285.274 179.728C285.063 179.622 284.595 179.539 283.871 179.479L283.667 178.483ZM301.74 179.547L299.183 179.569C298.127 179.615 297.599 179.735 297.599 179.932V185.589C297.599 185.74 297.674 185.815 297.825 185.815H301.424C301.786 185.815 302.027 185.649 302.148 185.317C302.284 184.97 302.351 184.337 302.351 183.417L303.098 183.303L303.053 186.313L303.098 189.097L302.351 189.21C302.351 188.32 302.299 187.746 302.193 187.49C302.087 187.234 301.831 187.105 301.424 187.105H297.825C297.674 187.105 297.599 187.173 297.599 187.309V192.061C297.599 192.725 297.734 193.147 298.006 193.329C298.278 193.494 298.874 193.577 299.794 193.577H301.989C303.136 193.577 304.034 193.313 304.683 192.785C305.331 192.242 305.844 191.413 306.222 190.296L306.991 190.432C306.991 190.703 306.795 191.473 306.403 192.74C306.01 193.992 305.731 194.618 305.565 194.618L299.794 194.664C299.402 194.664 298.255 194.649 296.354 194.618L293.841 194.686L293.66 193.691C294.505 193.6 295.018 193.517 295.199 193.442C295.396 193.351 295.509 193.14 295.539 192.808V180.362C295.539 180.045 295.433 179.833 295.222 179.728C295.011 179.622 294.52 179.539 293.751 179.479L293.547 178.483L296.376 178.551H300.02L305.611 178.574C305.716 178.8 305.769 179.305 305.769 180.09C305.769 180.874 305.731 181.682 305.656 182.511L304.932 182.443C304.751 181.372 304.419 180.626 303.936 180.203C303.453 179.766 302.721 179.547 301.74 179.547ZM310.508 178.483L313.292 178.551C314.107 178.551 314.658 178.528 314.944 178.483C315.095 178.906 315.608 180.037 316.483 181.878C317.374 183.718 317.894 184.835 318.045 185.227C318.211 185.604 318.709 186.585 319.539 188.169C320.369 189.753 320.92 190.749 321.191 191.156C321.327 190.9 321.787 189.866 322.572 188.056C323.371 186.245 323.832 185.197 323.952 184.91C324.345 184.141 324.918 182.934 325.672 181.289C326.442 179.63 326.827 178.702 326.827 178.506C327.113 178.536 327.46 178.551 327.868 178.551C328.29 178.551 329.407 178.528 331.217 178.483L331.421 179.434C329.988 179.524 329.271 179.894 329.271 180.543V192.808C329.271 193.125 329.384 193.336 329.611 193.442C329.852 193.547 330.388 193.63 331.217 193.691L331.421 194.686C329.475 194.641 328.358 194.618 328.072 194.618L325.514 194.686L325.333 193.691C326.193 193.6 326.721 193.51 326.917 193.419C327.113 193.329 327.211 193.125 327.211 192.808V180.905L320.738 194.618L320.422 194.686L313.813 180.995V192.65C313.813 192.982 313.933 193.223 314.175 193.374C314.431 193.525 314.96 193.63 315.759 193.691L315.963 194.686L313.315 194.618L310.757 194.686L310.576 193.691C311.376 193.6 311.889 193.494 312.115 193.374C312.342 193.238 312.455 192.997 312.455 192.65V180.339C312.455 180.037 312.342 179.833 312.115 179.728C311.904 179.607 311.436 179.517 310.712 179.456L310.508 178.483ZM335.051 178.483L337.835 178.551L341.57 178.461C344.829 178.461 346.458 179.66 346.458 182.059C346.458 183.794 345.538 185.046 343.697 185.815C343.667 185.815 343.652 185.83 343.652 185.861C343.652 185.891 343.667 185.906 343.697 185.906C344.633 186.011 345.523 186.434 346.368 187.173C347.213 187.912 347.635 188.833 347.635 189.934C347.635 191.458 347.115 192.635 346.074 193.464C345.048 194.294 343.539 194.709 341.547 194.709L337.858 194.618L335.346 194.686L335.165 193.691C336.01 193.6 336.523 193.517 336.704 193.442C336.9 193.351 336.998 193.14 336.998 192.808V180.362C336.998 180.06 336.885 179.856 336.658 179.75C336.447 179.63 335.979 179.539 335.255 179.479L335.051 178.483ZM340.891 179.524C339.925 179.524 339.374 179.569 339.239 179.66C339.118 179.735 339.058 179.818 339.058 179.909V185.589C339.058 185.74 339.133 185.823 339.284 185.838H340.597C341.743 185.838 342.611 185.544 343.199 184.955C343.788 184.367 344.082 183.56 344.082 182.534C344.082 181.493 343.788 180.731 343.199 180.248C342.626 179.766 341.856 179.524 340.891 179.524ZM339.058 192.174C339.058 193.185 339.759 193.691 341.162 193.691C342.581 193.691 343.592 193.366 344.195 192.718C344.814 192.054 345.123 191.254 345.123 190.319C345.123 189.021 344.731 188.124 343.946 187.626C343.162 187.128 342.128 186.879 340.846 186.879H339.284C339.133 186.879 339.058 186.962 339.058 187.128V192.174ZM351.371 178.483L354.087 178.551L357.55 178.461C359.21 178.461 360.568 178.815 361.624 179.524C362.68 180.233 363.208 181.32 363.208 182.783C363.208 184.94 362.114 186.396 359.927 187.151C360.243 187.573 360.741 188.252 361.42 189.187C362.884 191.269 363.872 192.552 364.385 193.034C364.913 193.517 365.517 193.789 366.196 193.849L366.49 194.641L364.815 194.573L362.552 194.618C362.265 194.226 361.503 193.095 360.266 191.224C359.044 189.353 358.222 188.161 357.799 187.648C357.739 187.588 357.656 187.558 357.55 187.558H355.377V192.808C355.377 193.11 355.513 193.321 355.785 193.442C356.056 193.547 356.577 193.63 357.346 193.691L357.55 194.686C355.604 194.641 354.608 194.618 354.563 194.618L351.666 194.686L351.484 193.691C352.329 193.6 352.842 193.517 353.024 193.442C353.22 193.351 353.318 193.14 353.318 192.808V180.362C353.318 180.06 353.205 179.856 352.978 179.75C352.767 179.63 352.299 179.539 351.575 179.479L351.371 178.483ZM355.377 179.909V186.472C355.724 186.517 356.222 186.54 356.871 186.54C359.663 186.54 361.058 185.295 361.058 182.806C361.058 181.719 360.704 180.905 359.994 180.362C359.285 179.803 358.365 179.524 357.233 179.524C356.252 179.524 355.694 179.569 355.558 179.66C355.438 179.735 355.377 179.818 355.377 179.909ZM377.632 179.547L375.074 179.569C374.018 179.615 373.49 179.735 373.49 179.932V185.589C373.49 185.74 373.565 185.815 373.716 185.815H377.315C377.677 185.815 377.918 185.649 378.039 185.317C378.175 184.97 378.243 184.337 378.243 183.417L378.99 183.303L378.944 186.313L378.99 189.097L378.243 189.21C378.243 188.32 378.19 187.746 378.084 187.49C377.979 187.234 377.722 187.105 377.315 187.105H373.716C373.565 187.105 373.49 187.173 373.49 187.309V192.061C373.49 192.725 373.626 193.147 373.897 193.329C374.169 193.494 374.765 193.577 375.685 193.577H377.881C379.027 193.577 379.925 193.313 380.574 192.785C381.223 192.242 381.736 191.413 382.113 190.296L382.882 190.432C382.882 190.703 382.686 191.473 382.294 192.74C381.902 193.992 381.622 194.618 381.457 194.618L375.685 194.664C375.293 194.664 374.146 194.649 372.245 194.618L369.733 194.686L369.552 193.691C370.397 193.6 370.91 193.517 371.091 193.442C371.287 193.351 371.4 193.14 371.43 192.808V180.362C371.43 180.045 371.325 179.833 371.113 179.728C370.902 179.622 370.412 179.539 369.642 179.479L369.438 178.483L372.268 178.551H375.911L381.502 178.574C381.607 178.8 381.66 179.305 381.66 180.09C381.66 180.874 381.622 181.682 381.547 182.511L380.823 182.443C380.642 181.372 380.31 180.626 379.827 180.203C379.344 179.766 378.612 179.547 377.632 179.547ZM400.189 183.439C400.189 182.534 399.917 181.817 399.374 181.289C398.831 180.761 398.167 180.497 397.383 180.497C396.613 180.497 395.979 180.678 395.481 181.04C394.983 181.387 394.47 181.938 393.942 182.692C393.822 182.692 393.686 182.655 393.535 182.579C393.384 182.489 393.346 182.368 393.422 182.217C393.829 181.267 394.463 180.49 395.323 179.886C396.183 179.268 397.186 178.958 398.333 178.958C399.48 178.958 400.453 179.321 401.253 180.045C402.068 180.754 402.475 181.674 402.475 182.806C402.475 184.676 401.532 186.713 399.646 188.916C398.559 190.198 397.435 191.45 396.274 192.672C396.274 192.748 396.304 192.785 396.364 192.785H400.031C400.77 192.785 401.298 192.627 401.615 192.31C401.932 191.978 402.218 191.39 402.475 190.545L403.063 190.884C403.063 191.91 402.83 193.23 402.362 194.845C401.894 194.679 400.74 194.596 398.899 194.596H397.247C395.406 194.596 394.003 194.634 393.037 194.709C392.962 194.528 392.924 194.339 392.924 194.143C393.075 194.007 393.437 193.698 394.01 193.215C395.157 192.28 396.266 191.156 397.337 189.844C399.238 187.49 400.189 185.355 400.189 183.439ZM407.13 187.037C407.13 185.664 407.356 184.375 407.809 183.168C408.261 181.946 408.94 180.935 409.846 180.135C410.766 179.336 411.815 178.936 412.992 178.936C414.742 178.936 416.175 179.69 417.292 181.199C418.409 182.692 418.967 184.556 418.967 186.788C418.967 189.006 418.424 190.915 417.337 192.514C416.251 194.098 414.825 194.89 413.06 194.89C411.294 194.89 409.861 194.166 408.759 192.718C407.673 191.254 407.13 189.361 407.13 187.037ZM413.467 193.758C414.025 193.758 414.508 193.585 414.915 193.238C415.338 192.891 415.662 192.416 415.889 191.812C416.356 190.605 416.59 189.165 416.59 187.49C416.59 185.604 416.341 183.937 415.843 182.489C415.587 181.719 415.195 181.116 414.667 180.678C414.138 180.226 413.512 179.999 412.788 179.999C412.064 179.999 411.453 180.316 410.955 180.95C409.989 182.157 409.506 183.899 409.506 186.177C409.506 191.231 410.826 193.758 413.467 193.758ZM429.736 183.439C429.736 182.534 429.464 181.817 428.921 181.289C428.378 180.761 427.714 180.497 426.929 180.497C426.16 180.497 425.526 180.678 425.028 181.04C424.53 181.387 424.017 181.938 423.489 182.692C423.368 182.692 423.232 182.655 423.081 182.579C422.931 182.489 422.893 182.368 422.968 182.217C423.376 181.267 424.009 180.49 424.869 179.886C425.73 179.268 426.733 178.958 427.88 178.958C429.026 178.958 430 179.321 430.799 180.045C431.614 180.754 432.021 181.674 432.021 182.806C432.021 184.676 431.078 186.713 429.192 188.916C428.106 190.198 426.982 191.45 425.82 192.672C425.82 192.748 425.85 192.785 425.911 192.785H429.577C430.316 192.785 430.845 192.627 431.161 192.31C431.478 191.978 431.765 191.39 432.021 190.545L432.61 190.884C432.61 191.91 432.376 193.23 431.908 194.845C431.441 194.679 430.286 194.596 428.445 194.596H426.793C424.952 194.596 423.549 194.634 422.584 194.709C422.508 194.528 422.47 194.339 422.47 194.143C422.621 194.007 422.983 193.698 423.557 193.215C424.703 192.28 425.812 191.156 426.884 189.844C428.785 187.49 429.736 185.355 429.736 183.439ZM442.335 185.431C443.436 185.431 444.439 185.853 445.345 186.698C446.25 187.528 446.703 188.599 446.703 189.911C446.703 191.224 446.258 192.386 445.367 193.396C444.492 194.392 443.27 194.89 441.701 194.89C440.132 194.89 438.902 194.415 438.012 193.464C437.121 192.499 436.676 191.164 436.676 189.459C436.676 187.754 437.363 185.891 438.736 183.869C440.124 181.832 441.806 180.188 443.783 178.936C443.919 178.981 444.077 179.087 444.258 179.253C444.454 179.404 444.515 179.517 444.439 179.592C443.172 180.724 442.055 181.908 441.09 183.145C440.124 184.382 439.581 185.431 439.46 186.291C439.656 186.094 440.034 185.906 440.592 185.725C441.165 185.529 441.746 185.431 442.335 185.431ZM439.302 187.513C438.985 187.935 438.826 188.742 438.826 189.934C438.826 191.111 439.106 192.046 439.664 192.74C440.222 193.419 440.954 193.758 441.859 193.758C442.78 193.758 443.459 193.434 443.896 192.785C444.334 192.122 444.553 191.277 444.553 190.251C444.553 189.225 444.288 188.335 443.76 187.58C443.232 186.811 442.523 186.426 441.633 186.426C441.195 186.426 440.75 186.532 440.298 186.743C439.845 186.954 439.513 187.211 439.302 187.513Z" fill="#66691A"/>
<path d="M190.901 220.94L189.167 221.007L189 220.242H189.1C189.611 220.186 190 220.048 190.267 219.826C190.545 219.593 190.779 219.216 190.968 218.695L194.503 209.2H195.303L199.239 218.961C199.472 219.504 199.678 219.859 199.856 220.026C200.045 220.192 200.345 220.275 200.756 220.275L200.939 221.007C200.072 220.951 199.289 220.924 198.588 220.924C197.899 220.924 197.226 220.951 196.571 221.007L196.421 220.292H196.487C197.365 220.28 197.805 220.125 197.805 219.826C197.805 219.682 197.404 218.695 196.604 216.866H192.452L191.635 219.127C191.602 219.261 191.585 219.377 191.585 219.477C191.585 219.71 191.691 219.887 191.902 220.009C192.113 220.131 192.474 220.208 192.986 220.242L193.186 221.007L190.901 220.94ZM194.37 211.611L192.769 216.001H196.22L194.37 211.611ZM209.802 209.782C208.38 209.782 207.268 210.269 206.468 211.245C205.667 212.21 205.267 213.396 205.267 214.804C205.267 216.456 205.684 217.797 206.518 218.828C207.351 219.859 208.524 220.375 210.036 220.375C211.07 220.375 211.842 220.175 212.354 219.776C212.665 219.532 212.821 219.216 212.821 218.828V217.531C212.821 217.054 212.698 216.749 212.454 216.616C212.209 216.472 211.626 216.4 210.703 216.4L210.553 215.669C211.186 215.713 211.992 215.735 212.971 215.735C213.96 215.735 214.783 215.713 215.439 215.669L215.572 216.4C215.027 216.4 214.683 216.472 214.538 216.616C214.394 216.749 214.321 217.054 214.321 217.531V218.845C214.321 219.698 214.288 220.125 214.221 220.125C212.943 220.846 211.47 221.206 209.802 221.206C207.846 221.206 206.306 220.669 205.184 219.593C204.072 218.507 203.516 217.043 203.516 215.203C203.516 213.351 204.133 211.855 205.367 210.713C206.601 209.571 208.157 209 210.036 209C210.703 209 211.503 209.1 212.437 209.299C213.371 209.488 213.904 209.588 214.038 209.599C214.116 209.765 214.155 210.136 214.155 210.713C214.155 211.289 214.127 211.882 214.071 212.492L213.604 212.442C213.515 211.799 213.332 211.3 213.054 210.946C212.776 210.591 212.354 210.308 211.787 210.098C211.231 209.887 210.57 209.782 209.802 209.782ZM227.989 209.216L229.873 209.166L230.007 209.898C229.373 209.965 228.984 210.031 228.839 210.098C228.695 210.164 228.623 210.314 228.623 210.547V216.733C228.623 219.715 227.205 221.206 224.371 221.206C222.748 221.206 221.514 220.863 220.669 220.175C219.835 219.477 219.418 218.368 219.418 216.849V210.53C219.418 210.308 219.352 210.159 219.218 210.081C219.085 209.992 218.796 209.926 218.351 209.881L218.201 209.15L220.152 209.2L222.153 209.15L222.286 209.881C221.664 209.948 221.28 210.014 221.136 210.081C221.002 210.136 220.936 210.286 220.936 210.53V216.65C220.936 219.133 222.186 220.375 224.687 220.375C225.666 220.375 226.399 220.07 226.888 219.46C227.378 218.85 227.622 217.997 227.622 216.899V210.547C227.622 210.314 227.533 210.159 227.355 210.081C227.189 210.003 226.8 209.942 226.188 209.898L226.038 209.166L227.989 209.216ZM234.04 220.94L232.305 221.007L232.139 220.242H232.239C232.75 220.186 233.139 220.048 233.406 219.826C233.684 219.593 233.917 219.216 234.106 218.695L237.641 209.2H238.442L242.377 218.961C242.61 219.504 242.816 219.859 242.994 220.026C243.183 220.192 243.483 220.275 243.894 220.275L244.078 221.007C243.211 220.951 242.427 220.924 241.727 220.924C241.037 220.924 240.365 220.951 239.709 221.007L239.559 220.292H239.626C240.504 220.28 240.943 220.125 240.943 219.826C240.943 219.682 240.543 218.695 239.742 216.866H235.59L234.773 219.127C234.74 219.261 234.723 219.377 234.723 219.477C234.723 219.71 234.829 219.887 235.04 220.009C235.251 220.131 235.613 220.208 236.124 220.242L236.324 221.007L234.04 220.94ZM237.508 211.611L235.907 216.001H239.359L237.508 211.611ZM250.341 220.375C251.108 220.375 251.697 220.181 252.108 219.793C252.531 219.405 252.742 218.933 252.742 218.379C252.742 217.825 252.536 217.354 252.125 216.966C251.725 216.567 251.23 216.223 250.641 215.935C250.063 215.646 249.479 215.347 248.89 215.037C248.312 214.726 247.817 214.316 247.406 213.806C247.006 213.285 246.806 212.681 246.806 211.993C246.806 211.007 247.161 210.264 247.873 209.765C248.584 209.255 249.429 209 250.407 209C251.664 209 252.742 209.211 253.642 209.632C253.72 209.798 253.759 210.236 253.759 210.946C253.759 211.644 253.737 212.171 253.692 212.526L253.175 212.492C253.131 211.716 252.859 211.073 252.358 210.563C251.869 210.042 251.202 209.782 250.357 209.782C249.757 209.782 249.262 209.937 248.873 210.247C248.495 210.547 248.306 210.968 248.306 211.511C248.306 212.154 248.701 212.714 249.49 213.191C249.835 213.401 250.218 213.612 250.641 213.823C251.063 214.033 251.486 214.261 251.908 214.504C252.331 214.737 252.714 214.998 253.059 215.286C253.848 215.929 254.243 216.749 254.243 217.747C254.243 218.734 253.898 219.56 253.209 220.225C252.52 220.879 251.608 221.206 250.474 221.206C249.34 221.206 248.162 220.979 246.939 220.524C246.884 220.358 246.806 219.948 246.706 219.294C246.606 218.629 246.533 218.069 246.489 217.614L247.256 217.498C247.701 219.416 248.729 220.375 250.341 220.375ZM263.878 209.798C262.344 209.798 261.188 210.28 260.41 211.245C259.643 212.198 259.259 213.435 259.259 214.953C259.259 216.461 259.71 217.742 260.61 218.795C261.511 219.848 262.678 220.375 264.112 220.375C266.079 220.375 267.413 219.527 268.114 217.83L268.597 217.93C268.597 218.052 268.486 218.473 268.264 219.194C268.053 219.904 267.897 220.258 267.797 220.258C266.674 220.89 265.335 221.206 263.778 221.206C261.922 221.206 260.41 220.657 259.243 219.56C258.087 218.462 257.509 217.054 257.509 215.336C257.509 213.385 258.109 211.844 259.31 210.713C260.521 209.571 262.083 209 263.995 209C264.695 209 265.524 209.1 266.48 209.299C267.447 209.488 267.98 209.588 268.08 209.599C268.158 209.765 268.197 210.136 268.197 210.713C268.197 211.289 268.169 211.882 268.114 212.492L267.647 212.442C267.558 211.799 267.374 211.3 267.097 210.946C266.496 210.181 265.424 209.798 263.878 209.798ZM272.994 220.94L271.26 221.007L271.093 220.242H271.193C271.704 220.186 272.093 220.048 272.36 219.826C272.638 219.593 272.872 219.216 273.061 218.695L276.596 209.2H277.396L281.331 218.961C281.565 219.504 281.77 219.859 281.948 220.026C282.137 220.192 282.437 220.275 282.849 220.275L283.032 221.007C282.165 220.951 281.381 220.924 280.681 220.924C279.992 220.924 279.319 220.951 278.663 221.007L278.513 220.292H278.58C279.458 220.28 279.897 220.125 279.897 219.826C279.897 219.682 279.497 218.695 278.697 216.866H274.545L273.728 219.127C273.694 219.261 273.677 219.377 273.677 219.477C273.677 219.71 273.783 219.887 273.994 220.009C274.206 220.131 274.567 220.208 275.078 220.242L275.278 221.007L272.994 220.94ZM276.462 211.611L274.861 216.001H278.313L276.462 211.611ZM287.411 209.216L289.478 209.166L289.612 209.898C288.989 209.965 288.606 210.031 288.461 210.098C288.328 210.153 288.261 210.303 288.261 210.547V219.127C288.261 219.582 288.356 219.881 288.545 220.026C288.734 220.17 289.011 220.242 289.378 220.242H290.996C291.841 220.242 292.502 220.048 292.98 219.66C293.458 219.261 293.836 218.651 294.114 217.83L294.681 217.93C294.681 218.13 294.536 218.695 294.247 219.626C293.958 220.547 293.753 221.007 293.63 221.007L289.378 221.04L287.344 221.007L285.493 221.057L285.36 220.325C285.993 220.258 286.382 220.192 286.527 220.125C286.671 220.059 286.744 219.909 286.744 219.676V210.547C286.744 210.314 286.666 210.159 286.51 210.081C286.355 210.003 285.993 209.942 285.426 209.898L285.276 209.166L287.411 209.216ZM297.453 209.15L299.554 209.2C299.565 209.2 300.305 209.183 301.772 209.15L301.905 209.881C301.205 209.948 300.777 210.014 300.621 210.081C300.466 210.136 300.388 210.286 300.388 210.53V219.676C300.388 219.909 300.466 220.064 300.621 220.142C300.777 220.22 301.122 220.28 301.655 220.325L301.805 221.057L299.704 221.007C299.693 221.007 298.954 221.023 297.487 221.057L297.353 220.325C298.054 220.258 298.482 220.197 298.637 220.142C298.793 220.075 298.871 219.92 298.871 219.676V210.53C298.871 210.297 298.793 210.142 298.637 210.064C298.482 209.987 298.137 209.926 297.603 209.881L297.453 209.15ZM310.769 209.931L308.884 209.948C308.106 209.981 307.717 210.07 307.717 210.214V214.371C307.717 214.482 307.773 214.538 307.884 214.538H310.535C310.802 214.538 310.98 214.416 311.069 214.172C311.169 213.917 311.219 213.451 311.219 212.775L311.769 212.692L311.736 214.904L311.769 216.949L311.219 217.032C311.219 216.378 311.18 215.957 311.102 215.768C311.024 215.58 310.835 215.486 310.535 215.486H307.884C307.773 215.486 307.717 215.535 307.717 215.635V219.127C307.717 219.615 307.817 219.926 308.017 220.059C308.217 220.181 308.656 220.242 309.335 220.242H310.952C311.797 220.242 312.458 220.048 312.936 219.66C313.414 219.261 313.792 218.651 314.07 217.83L314.637 217.93C314.637 218.13 314.493 218.695 314.204 219.626C313.915 220.547 313.709 221.007 313.587 221.007L309.335 221.04C309.046 221.04 308.201 221.029 306.8 221.007L304.949 221.057L304.816 220.325C305.438 220.258 305.816 220.197 305.95 220.142C306.094 220.075 306.177 219.92 306.2 219.676V210.53C306.2 210.297 306.122 210.142 305.966 210.064C305.811 209.987 305.449 209.926 304.882 209.881L304.732 209.15L306.817 209.2H309.501L313.62 209.216C313.698 209.382 313.737 209.754 313.737 210.33C313.737 210.907 313.709 211.5 313.653 212.11L313.12 212.06C312.986 211.273 312.742 210.724 312.386 210.414C312.03 210.092 311.491 209.931 310.769 209.931ZM327.467 209.183L329.351 209.133L329.484 209.865C328.851 209.931 328.461 209.998 328.317 210.064C328.172 210.131 328.1 210.28 328.1 210.513L328.117 221.057C328.039 221.045 327.895 221.04 327.683 221.04C327.472 221.04 327.328 221.045 327.25 221.057L319.663 211.295V219.693C319.663 219.926 319.746 220.081 319.913 220.159C320.08 220.236 320.469 220.297 321.08 220.341L321.23 221.073L319.296 221.023L317.412 221.073L317.278 220.341C317.912 220.275 318.301 220.208 318.446 220.142C318.59 220.075 318.662 219.926 318.662 219.693V210.513C318.662 210.292 318.579 210.142 318.412 210.064C318.257 209.976 317.912 209.909 317.378 209.865L317.228 209.133C317.228 209.133 317.912 209.15 319.279 209.183C319.579 209.183 319.891 209.166 320.213 209.133C320.213 209.31 321.364 210.835 323.665 213.706C325.499 215.946 326.644 217.426 327.1 218.146V210.513C327.1 210.28 327.011 210.125 326.833 210.048C326.666 209.97 326.277 209.909 325.666 209.865L325.516 209.133C325.516 209.133 326.166 209.15 327.467 209.183ZM339.371 209.948H338.037V219.643C338.037 219.876 338.126 220.031 338.304 220.109C338.493 220.186 338.915 220.247 339.571 220.292L339.721 221.023C338.287 220.99 337.52 220.973 337.42 220.973C337.32 220.973 336.536 220.99 335.069 221.023L334.936 220.292C335.68 220.225 336.131 220.164 336.286 220.109C336.442 220.042 336.52 219.887 336.52 219.643V209.948H335.486C334.93 209.948 334.519 209.976 334.252 210.031C333.485 210.186 332.996 210.868 332.785 212.077L332.318 212.11C332.24 211.722 332.201 211.19 332.201 210.513C332.201 209.826 332.24 209.349 332.318 209.083C332.562 209.161 333.001 209.2 333.635 209.2H341.122C341.767 209.2 342.2 209.161 342.423 209.083C342.467 209.56 342.489 210.07 342.489 210.613C342.489 211.156 342.445 211.655 342.356 212.11L341.856 212.06C341.756 211.284 341.522 210.741 341.155 210.43C340.788 210.109 340.194 209.948 339.371 209.948ZM351.221 209.931L349.337 209.948C348.559 209.981 348.17 210.07 348.17 210.214V214.371C348.17 214.482 348.225 214.538 348.337 214.538H350.988C351.255 214.538 351.432 214.416 351.521 214.172C351.621 213.917 351.671 213.451 351.671 212.775L352.222 212.692L352.188 214.904L352.222 216.949L351.671 217.032C351.671 216.378 351.633 215.957 351.555 215.768C351.477 215.58 351.288 215.486 350.988 215.486H348.337C348.225 215.486 348.17 215.535 348.17 215.635V219.127C348.17 219.615 348.27 219.926 348.47 220.059C348.67 220.181 349.109 220.242 349.787 220.242H351.405C352.25 220.242 352.911 220.048 353.389 219.66C353.867 219.261 354.245 218.651 354.523 217.83L355.09 217.93C355.09 218.13 354.945 218.695 354.656 219.626C354.367 220.547 354.162 221.007 354.039 221.007L349.787 221.04C349.498 221.04 348.653 221.029 347.253 221.007L345.402 221.057L345.268 220.325C345.891 220.258 346.269 220.197 346.402 220.142C346.547 220.075 346.63 219.92 346.652 219.676V210.53C346.652 210.297 346.575 210.142 346.419 210.064C346.263 209.987 345.902 209.926 345.335 209.881L345.185 209.15L347.269 209.2H349.954L354.073 209.216C354.15 209.382 354.189 209.754 354.189 210.33C354.189 210.907 354.162 211.5 354.106 212.11L353.572 212.06C353.439 211.273 353.194 210.724 352.839 210.414C352.483 210.092 351.944 209.931 351.221 209.931ZM361.7 220.375C362.467 220.375 363.056 220.181 363.467 219.793C363.89 219.405 364.101 218.933 364.101 218.379C364.101 217.825 363.895 217.354 363.484 216.966C363.084 216.567 362.589 216.223 362 215.935C361.422 215.646 360.838 215.347 360.249 215.037C359.671 214.726 359.176 214.316 358.765 213.806C358.365 213.285 358.165 212.681 358.165 211.993C358.165 211.007 358.52 210.264 359.232 209.765C359.943 209.255 360.788 209 361.766 209C363.022 209 364.101 209.211 365.001 209.632C365.079 209.798 365.118 210.236 365.118 210.946C365.118 211.644 365.096 212.171 365.051 212.526L364.534 212.492C364.49 211.716 364.217 211.073 363.717 210.563C363.228 210.042 362.561 209.782 361.716 209.782C361.116 209.782 360.621 209.937 360.232 210.247C359.854 210.547 359.665 210.968 359.665 211.511C359.665 212.154 360.06 212.714 360.849 213.191C361.194 213.401 361.577 213.612 362 213.823C362.422 214.033 362.845 214.261 363.267 214.504C363.689 214.737 364.073 214.998 364.418 215.286C365.207 215.929 365.601 216.749 365.601 217.747C365.601 218.734 365.257 219.56 364.568 220.225C363.878 220.879 362.967 221.206 361.833 221.206C360.699 221.206 359.521 220.979 358.298 220.524C358.242 220.358 358.165 219.948 358.065 219.294C357.964 218.629 357.892 218.069 357.848 217.614L358.615 217.498C359.059 219.416 360.088 220.375 361.7 220.375ZM368.55 220.907C368.405 220.785 368.333 220.43 368.333 219.843C368.333 219.632 368.361 219.516 368.416 219.493C368.627 219.283 368.927 219.177 369.317 219.177C369.717 219.177 370.022 219.31 370.234 219.577C370.456 219.843 370.567 220.203 370.567 220.657C370.567 221.112 370.412 221.644 370.1 222.254C369.8 222.875 369.355 223.457 368.766 224C368.744 224 368.705 224 368.65 224C368.605 224 368.505 223.967 368.349 223.9C368.194 223.845 368.088 223.778 368.033 223.701C368.955 222.78 369.417 222.021 369.417 221.422C369.417 221.212 369.361 221.062 369.25 220.973C369.139 220.885 369.016 220.851 368.883 220.874C368.761 220.896 368.65 220.907 368.55 220.907ZM380.663 220.94L378.929 221.007L378.762 220.242H378.862C379.374 220.186 379.763 220.048 380.029 219.826C380.307 219.593 380.541 219.216 380.73 218.695L384.265 209.2H385.065L389 218.961C389.234 219.504 389.44 219.859 389.617 220.026C389.806 220.192 390.107 220.275 390.518 220.275L390.701 221.007C389.834 220.951 389.05 220.924 388.35 220.924C387.661 220.924 386.988 220.951 386.332 221.007L386.182 220.292H386.249C387.127 220.28 387.566 220.125 387.566 219.826C387.566 219.682 387.166 218.695 386.366 216.866H382.214L381.397 219.127C381.363 219.261 381.347 219.377 381.347 219.477C381.347 219.71 381.452 219.887 381.664 220.009C381.875 220.131 382.236 220.208 382.747 220.242L382.948 221.007L380.663 220.94ZM384.131 211.611L382.531 216.001H385.982L384.131 211.611ZM399.565 209.782C398.143 209.782 397.031 210.269 396.231 211.245C395.43 212.21 395.03 213.396 395.03 214.804C395.03 216.456 395.447 217.797 396.281 218.828C397.114 219.859 398.287 220.375 399.799 220.375C400.833 220.375 401.605 220.175 402.117 219.776C402.428 219.532 402.584 219.216 402.584 218.828V217.531C402.584 217.054 402.461 216.749 402.217 216.616C401.972 216.472 401.389 216.4 400.466 216.4L400.316 215.669C400.949 215.713 401.755 215.735 402.734 215.735C403.723 215.735 404.546 215.713 405.202 215.669L405.335 216.4C404.79 216.4 404.446 216.472 404.301 216.616C404.157 216.749 404.084 217.054 404.084 217.531V218.845C404.084 219.698 404.051 220.125 403.984 220.125C402.706 220.846 401.233 221.206 399.565 221.206C397.609 221.206 396.069 220.669 394.947 219.593C393.835 218.507 393.279 217.043 393.279 215.203C393.279 213.351 393.896 211.855 395.13 210.713C396.364 209.571 397.92 209 399.799 209C400.466 209 401.266 209.1 402.2 209.299C403.134 209.488 403.667 209.588 403.801 209.599C403.879 209.765 403.918 210.136 403.918 210.713C403.918 211.289 403.89 211.882 403.834 212.492L403.367 212.442C403.278 211.799 403.095 211.3 402.817 210.946C402.539 210.591 402.117 210.308 401.55 210.098C400.994 209.887 400.333 209.782 399.565 209.782ZM412.098 220.375C412.865 220.375 413.454 220.181 413.866 219.793C414.288 219.405 414.499 218.933 414.499 218.379C414.499 217.825 414.294 217.354 413.882 216.966C413.482 216.567 412.987 216.223 412.398 215.935C411.82 215.646 411.237 215.347 410.647 215.037C410.069 214.726 409.575 214.316 409.163 213.806C408.763 213.285 408.563 212.681 408.563 211.993C408.563 211.007 408.919 210.264 409.63 209.765C410.342 209.255 411.187 209 412.165 209C413.421 209 414.499 209.211 415.4 209.632C415.478 209.798 415.516 210.236 415.516 210.946C415.516 211.644 415.494 212.171 415.45 212.526L414.933 212.492C414.888 211.716 414.616 211.073 414.116 210.563C413.627 210.042 412.96 209.782 412.115 209.782C411.515 209.782 411.02 209.937 410.631 210.247C410.253 210.547 410.064 210.968 410.064 211.511C410.064 212.154 410.458 212.714 411.248 213.191C411.592 213.401 411.976 213.612 412.398 213.823C412.821 214.033 413.243 214.261 413.666 214.504C414.088 214.737 414.471 214.998 414.816 215.286C415.605 215.929 416 216.749 416 217.747C416 218.734 415.655 219.56 414.966 220.225C414.277 220.879 413.365 221.206 412.232 221.206C411.098 221.206 409.919 220.979 408.697 220.524C408.641 220.358 408.563 219.948 408.463 219.294C408.363 218.629 408.291 218.069 408.246 217.614L409.013 217.498C409.458 219.416 410.486 220.375 412.098 220.375Z" fill="#66691A"/>
</svg>
